<svg width="700" height="400" viewBox="0 0 700 400" fill="none" xmlns="http://www.w3.org/2000/svg">
<rect x="347" y="143" width="150" height="150" rx="20" fill="white"/>
<path d="M421.999 271.582L435.989 192.902C449.324 192.902 453.53 194.364 454.137 200.333C454.137 200.333 463.083 196.998 467.594 190.223C449.988 182.065 432.298 181.697 432.298 181.697L421.976 194.27L421.999 194.268L411.677 181.695C411.677 181.695 393.986 182.064 376.383 190.222C380.891 196.996 389.839 200.331 389.839 200.331C390.45 194.363 394.651 192.9 407.897 192.891L421.999 271.582Z" fill="#BD0C16"/>
<path d="M422 178.057C436.232 177.948 452.522 180.259 469.198 187.527C471.427 183.515 472 181.742 472 181.742C453.771 174.53 436.699 172.062 421.998 172C407.298 172.062 390.227 174.531 372 181.742C372 181.742 372.813 183.926 374.8 187.527C391.473 180.259 407.766 177.948 421.998 178.057H422Z" fill="#BD0C16"/>
<rect x="227" y="63" width="100" height="100" rx="20" fill="white"/>
<path d="M277 143C293.569 143 307 129.569 307 113C307 96.4315 293.569 83 277 83C260.431 83 247 96.4315 247 113C247 129.569 260.431 143 277 143Z" fill="#12C64B"/>
<path d="M287.837 124.088C287.6 124.494 287.211 124.789 286.756 124.909C286.301 125.028 285.817 124.962 285.41 124.725C280.743 121.998 275.353 121.562 271.651 121.657C269.246 121.719 266.854 122.034 264.516 122.598C264.08 122.675 263.632 122.587 263.258 122.351C262.884 122.115 262.612 121.748 262.494 121.322C262.376 120.895 262.422 120.441 262.622 120.046C262.822 119.652 263.162 119.346 263.575 119.189C266.151 118.549 268.789 118.187 271.443 118.112C273.983 118.018 276.525 118.202 279.025 118.661C281.903 119.182 284.67 120.192 287.207 121.647C287.409 121.765 287.587 121.922 287.728 122.109C287.87 122.296 287.973 122.509 288.032 122.736C288.09 122.963 288.103 123.199 288.07 123.431C288.037 123.663 287.958 123.887 287.837 124.088ZM291.137 117.232C290.952 117.55 290.687 117.814 290.368 117.997C290.049 118.18 289.688 118.276 289.32 118.275C288.947 118.276 288.581 118.176 288.26 117.986C282.734 114.757 276.352 114.236 271.965 114.372C269.116 114.444 266.283 114.818 263.514 115.487C262.984 115.611 262.426 115.526 261.958 115.248C261.49 114.97 261.148 114.522 261.003 113.997C260.859 113.472 260.924 112.912 261.184 112.434C261.444 111.956 261.88 111.597 262.399 111.433C265.451 110.678 268.576 110.255 271.719 110.172C274.728 110.056 277.741 110.275 280.702 110.823C284.108 111.441 287.383 112.637 290.384 114.362C290.864 114.643 291.212 115.104 291.353 115.641C291.494 116.179 291.417 116.751 291.137 117.232ZM295.409 109.722C295.238 110.015 295.012 110.271 294.742 110.476C294.472 110.681 294.164 110.831 293.837 110.917C293.509 111.003 293.167 111.023 292.832 110.976C292.496 110.93 292.173 110.818 291.881 110.646C278.742 102.969 261.7 107.533 261.54 107.578C261.208 107.683 260.859 107.72 260.514 107.686C260.168 107.653 259.832 107.55 259.527 107.384C259.222 107.218 258.953 106.992 258.738 106.72C258.522 106.448 258.363 106.135 258.272 105.8C258.18 105.465 258.156 105.115 258.203 104.77C258.25 104.426 258.366 104.095 258.543 103.796C258.721 103.498 258.958 103.238 259.238 103.034C259.519 102.829 259.838 102.682 260.176 102.604C263.911 101.683 267.734 101.168 271.579 101.066C275.269 100.929 278.963 101.196 282.594 101.864C286.77 102.615 290.787 104.075 294.471 106.18C294.767 106.35 295.025 106.577 295.232 106.847C295.439 107.118 295.591 107.426 295.678 107.756C295.765 108.085 295.786 108.428 295.74 108.766C295.694 109.103 295.581 109.428 295.409 109.722Z" fill="white"/>
<rect x="527" y="257" width="100" height="100" rx="20" fill="white"/>
<path d="M600.517 337H553.483C549.903 337 547 334.097 547 330.517V283.483C547 279.903 549.903 277 553.483 277H600.517C604.097 277 607 279.903 607 283.483V330.517C607 334.097 604.097 337 600.517 337Z" fill="#E50914"/>
<path d="M600.517 337H553.483C549.903 337 547 334.097 547 330.517V283.483C547 279.903 549.903 277 553.483 277H600.517C604.097 277 607 279.903 607 283.483V330.517C607 334.097 604.097 337 600.517 337Z" fill="#E50914"/>
<path d="M589.494 312.022C590.139 312.071 590.783 312.124 591.427 312.181V300.837H589.494V312.022ZM558.411 307.813L555.895 300.837H554.059V313.164C554.701 313.072 555.345 312.984 555.991 312.9V306.197L558.228 312.625C558.932 312.544 559.637 312.466 560.344 312.394V300.837H558.411V307.813ZM562.202 312.214C563.988 312.051 565.778 311.919 567.569 311.815V309.911C566.421 309.978 565.276 310.056 564.134 310.146V307.264C564.883 307.256 565.869 307.233 566.743 307.244V305.34C566.045 305.338 564.923 305.35 564.134 305.36V302.758H567.569V300.837H562.202V312.214ZM568.807 302.758H570.83V311.661C571.473 311.636 572.117 311.616 572.762 311.6V302.758H574.784V300.837H568.807V302.758ZM576.023 311.547L577.955 311.547V307.151H580.574V305.248H577.955V302.758H581.417V300.837H576.023V311.547ZM599.942 300.837H597.82L596.421 304.08L595.164 300.837H593.074L595.32 306.631L592.868 312.316C593.546 312.382 594.223 312.453 594.899 312.527L596.325 309.222L597.737 312.865C598.472 312.96 599.206 313.059 599.94 313.163L599.943 313.162L597.426 306.67L599.942 300.837ZM584.587 300.836H582.655V311.642C584.411 311.702 586.16 311.791 587.901 311.907V310.003C586.8 309.93 585.695 309.867 584.587 309.816V300.836Z" fill="white"/>
<rect x="72" y="143" width="100" height="100" rx="20" fill="white"/>
<rect x="517" y="43" width="100" height="100" rx="20" fill="white"/>
<path d="M569.686 76.6769C568.705 76.5003 567.709 76.4141 566.713 76.4192C565.709 76.4145 564.707 76.5008 563.72 76.6769C563.691 76.6901 563.658 76.6912 563.628 76.68C563.598 76.6689 563.574 76.6464 563.561 76.6174C563.548 76.5885 563.547 76.5556 563.558 76.5258C563.569 76.4961 563.592 76.472 563.62 76.4589L566.732 74.1001L569.805 76.4589C569.834 76.472 569.856 76.4961 569.867 76.5258C569.878 76.5556 569.877 76.5885 569.864 76.6174C569.851 76.6464 569.827 76.6689 569.797 76.68C569.768 76.6912 569.735 76.6901 569.706 76.6769M564.532 91.3845C564.483 91.3989 564.438 91.4242 564.4 91.4585C564.363 91.4929 564.333 91.5354 564.314 91.5828C564.948 92.0585 565.385 93.1685 566.673 93.1685C567.961 93.1685 568.417 92.0585 569.032 91.5828C569.018 91.536 568.992 91.4934 568.957 91.4588C568.923 91.4242 568.88 91.3987 568.833 91.3845C567.412 91.6487 565.954 91.6487 564.532 91.3845ZM566.732 89.5808C566.395 89.5808 566.296 89.4618 566.058 89.4618C565.762 89.4884 565.482 89.6141 565.266 89.8186C565.273 89.9006 565.308 89.9776 565.365 90.0367C565.88 90.0367 566.138 90.4133 566.732 90.4133C567.327 90.4133 567.605 90.116 568.12 90.0367C568.135 90.0022 568.142 89.9651 568.142 89.9276C568.142 89.8902 568.135 89.8531 568.12 89.8186C567.91 89.6039 567.627 89.4764 567.327 89.4618C567.089 89.4618 567.01 89.5808 566.633 89.5808M596.366 95.2101C596.366 95.9039 596.267 96.6373 596.187 97.3112C592.818 97.8662 591.609 94.893 588.259 95.0119C588.46 95.7756 588.619 96.5498 588.734 97.331C591.589 97.331 592.699 99.9871 595.91 99.5709C595.731 100.384 595.533 101.196 595.315 101.989C592.798 102.247 591.926 99.7493 589.012 99.8087V101.771C591.49 101.771 592.302 104.031 594.661 103.912C594.364 104.724 594.027 105.498 593.67 106.271C591.965 106.271 591.39 104.031 588.833 104.288C588.754 104.843 588.655 105.398 588.536 105.953C590.776 105.795 591.252 107.936 592.857 107.936C592.441 108.689 592.005 109.402 591.549 110.116C590.598 109.62 589.765 108.134 587.981 107.975C588.16 107.4 588.338 106.826 588.457 106.251C586.625 106.214 584.87 105.509 583.521 104.269C584.017 101.434 579.557 98.56 579.557 96.4787C579.557 94.3974 580.687 92.9901 580.687 89.9574C580.665 87.5304 579.715 85.2039 578.031 83.4559C577.715 83.1454 577.37 82.8666 577 82.6234C578.659 84.4996 579.606 86.8989 579.676 89.4024C579.676 92.2567 578.348 93.7631 578.348 96.3994C578.348 99.0357 582.213 101.315 582.213 104.031C582.087 105.518 581.59 106.949 580.766 108.193C582.2 109.701 584.127 110.643 586.197 110.849C586.382 110.875 586.571 110.841 586.735 110.752C586.899 110.663 587.03 110.523 587.109 110.354C587.248 110.017 587.387 109.7 587.505 109.363C589.071 109.363 589.785 110.849 590.637 111.345C590.162 111.979 589.666 112.613 589.131 113.208C588.488 112.302 587.591 111.605 586.554 111.206C586.356 111.622 586.118 111.999 585.9 112.395C586.809 112.822 587.569 113.513 588.08 114.378C587.525 114.952 586.931 115.507 586.316 116.062C585.889 115.378 585.338 114.78 584.691 114.298L583.938 115.289C584.508 115.729 584.98 116.283 585.325 116.915C584.611 117.49 583.898 118.025 583.145 118.52C582.768 115.488 578.645 113.426 579.755 109.918C579.275 110.601 578.994 111.404 578.943 112.237C578.943 114.774 581.658 116.816 581.856 119.313C581.301 119.65 580.726 119.967 580.132 120.284C580.033 117.49 577.159 114.457 577.159 112.197C577.159 109.938 580.608 107.004 580.608 103.991C580.608 100.978 576.762 98.8969 576.762 96.2607C576.762 93.6244 578.388 92.1179 578.388 88.7284C578.369 87.4892 578.096 86.2671 577.584 85.1382C577.073 84.0094 576.334 82.9981 575.414 82.1675C575.1 81.8898 574.754 81.6503 574.384 81.4539C576.114 83.2806 577.085 85.697 577.099 88.2131C577.099 91.4044 575.216 93.1487 575.216 96.2607C575.216 99.3726 578.962 101.117 578.962 103.991C578.962 106.865 575.454 109.343 575.454 112.316C575.454 115.289 578.625 117.747 578.625 120.958C577.979 121.258 577.318 121.523 576.643 121.751C577.04 118.52 573.551 115.151 573.551 112.495C573.551 109.838 577.198 107.103 577.198 103.991C577.198 100.879 573.492 99.4321 573.492 96.221C573.492 93.0099 575.791 91.226 575.791 87.6779C575.783 86.3686 575.476 85.0785 574.891 83.9067C574.307 82.735 573.462 81.7128 572.421 80.9187L572.302 80.7998C572.124 80.661 571.945 80.7998 572.104 81.0178C573.552 82.7392 574.314 84.9341 574.245 87.1824C574.245 90.4133 571.648 93.1288 571.648 96.1814C571.648 99.9078 575.157 100.958 575.157 103.991C575.157 107.024 571.39 109.462 571.39 112.693C571.39 115.924 574.958 119.016 574.324 122.465C573.63 122.643 572.897 122.802 572.164 122.941C572.857 118.639 569.369 115.527 569.369 112.732C569.369 109.938 573.333 106.945 573.333 103.991C573.333 101.038 570.538 100.284 570.162 97.3905C570.155 97.2966 570.129 97.2052 570.084 97.1226C570.039 97.0399 569.977 96.9679 569.901 96.9114C569.826 96.855 569.74 96.8155 569.648 96.7955C569.556 96.7756 569.461 96.7757 569.369 96.7958C568.518 97.0932 567.631 97.2733 566.732 97.331C565.903 97.2777 565.083 97.1178 564.294 96.8553C564.203 96.8384 564.109 96.8406 564.018 96.8619C563.927 96.8832 563.842 96.923 563.768 96.9789C563.693 97.0348 563.631 97.1055 563.585 97.1865C563.539 97.2676 563.511 97.3573 563.501 97.4499C563.125 100.344 560.33 101.236 560.33 104.051C560.33 106.865 564.294 109.739 564.294 112.792C564.294 115.844 560.806 118.738 561.5 123C560.766 122.861 560.033 122.703 559.339 122.524C558.724 119.055 562.273 115.745 562.273 112.752C562.273 109.759 558.506 107.083 558.506 104.051C558.506 101.018 562.015 99.9673 562.015 96.2408C562.015 93.109 559.418 90.4727 559.418 87.2418C559.349 84.9935 560.111 82.7986 561.559 81.0773C561.698 80.8989 561.559 80.7403 561.361 80.8593L561.242 80.9782C560.204 81.7753 559.361 82.7981 558.778 83.9692C558.194 85.1403 557.884 86.4289 557.872 87.7374C557.872 91.2854 560.171 93.0694 560.171 96.2805C560.171 99.4916 556.465 100.939 556.465 104.051C556.465 107.163 560.112 109.68 560.112 112.554C560.112 115.428 556.623 118.5 557.02 121.811C556.326 121.573 555.652 121.315 555.038 121.018C555.038 117.807 558.169 115.071 558.169 112.376C558.169 109.68 554.661 106.964 554.661 104.051C554.661 101.137 558.407 99.4321 558.407 96.3201C558.407 93.2081 556.425 91.4638 556.425 88.2725C556.419 85.7482 557.376 83.3165 559.101 81.4737C558.733 81.6746 558.388 81.9138 558.07 82.1873C557.152 83.0187 556.413 84.0301 555.902 85.1588C555.39 86.2875 555.117 87.5093 555.097 88.7483C555.097 92.1378 556.722 93.6442 556.722 96.2805C556.722 98.9167 552.857 100.978 552.857 103.991C552.857 107.004 556.207 109.541 556.207 112.098C556.207 114.655 553.333 117.41 553.234 120.185C552.659 119.868 552.084 119.571 551.509 119.214C551.727 116.697 554.443 114.675 554.443 112.138C554.39 111.308 554.116 110.507 553.65 109.819C554.74 113.327 550.637 115.408 550.261 118.421C549.507 117.932 548.774 117.397 548.06 116.816C548.411 116.188 548.883 115.635 549.448 115.19C549.19 114.853 548.933 114.556 548.695 114.199C548.03 114.66 547.475 115.263 547.069 115.963C546.455 115.428 545.86 114.853 545.305 114.278C545.84 113.624 546.514 112.633 547.486 112.296C547.261 111.913 547.043 111.517 546.832 111.107C545.826 111.514 544.959 112.202 544.334 113.089C543.844 112.537 543.381 111.962 542.946 111.365C543.819 110.79 544.532 109.383 546.098 109.383L546.514 110.374C546.584 110.546 546.711 110.689 546.873 110.779C547.035 110.869 547.223 110.901 547.406 110.869C549.492 110.638 551.425 109.668 552.857 108.134C552.015 106.899 551.516 105.462 551.41 103.971C551.41 101.256 555.256 98.9762 555.256 96.3399C555.256 93.7037 553.928 92.1972 553.928 89.3429C554.019 86.87 554.973 84.5069 556.623 82.663C556.245 82.8948 555.899 83.1747 555.593 83.4955C553.903 85.1824 552.925 87.4522 552.857 89.8385C552.857 92.8712 553.987 94.1001 553.987 96.3598C553.987 98.6194 549.587 101.315 550.023 104.15C548.668 105.406 546.895 106.112 545.048 106.132C545.206 106.707 545.345 107.281 545.523 107.856C543.72 107.955 542.887 109.501 541.955 109.997C541.488 109.293 541.058 108.565 540.667 107.817C542.273 107.638 542.649 105.577 544.968 105.834C544.849 105.279 544.75 104.724 544.671 104.169C542.094 104.011 541.519 106.152 539.834 106.152C539.478 105.379 539.161 104.606 538.843 103.793C541.202 103.912 542.015 101.612 544.473 101.652V99.6898C541.559 99.6898 540.687 102.128 538.169 101.87C537.951 101.097 537.753 100.284 537.575 99.4519C540.746 99.8682 541.896 97.1724 544.75 97.2121C544.875 96.4572 545.041 95.7095 545.246 94.9722C541.797 94.8137 540.588 97.8266 537.317 97.2716C537.218 96.5778 537.178 95.8642 537.119 95.1705C541.083 95.6065 542.51 92.3954 546.078 92.7919C546.418 91.9336 546.815 91.0992 547.268 90.2944C542.689 89.561 541.163 93.3667 537 92.7324C537 84.8469 540.133 77.2843 545.708 71.7084C551.284 66.1325 558.847 63 566.732 63C574.618 63 582.18 66.1325 587.756 71.7084C593.332 77.2843 596.465 84.8469 596.465 92.7324C592.302 93.3072 590.776 89.561 586.296 90.3538C586.744 91.1539 587.142 91.9814 587.486 92.8315C591.054 92.4153 592.5 95.6462 596.445 95.1903M553.888 82.7027C552.725 82.245 551.468 82.0762 550.225 82.2108C548.982 82.3455 547.791 82.7795 546.752 83.4757C546.595 82.4583 546.237 81.4823 545.7 80.6044C545.162 79.7265 544.455 78.9642 543.62 78.3617C543.578 78.326 543.527 78.3036 543.472 78.2975C543.417 78.2913 543.361 78.3017 543.312 78.3272C543.263 78.3528 543.223 78.3923 543.197 78.4408C543.171 78.4894 543.159 78.5446 543.165 78.5996C543.521 83.0793 540.905 86.9445 537.694 90.3538C541.024 91.3449 543.819 87.0833 548.08 88.5699C549.645 86.2563 551.612 84.2423 553.888 82.6234M566.732 80.0268C565.529 79.9577 564.333 80.2663 563.313 80.9095C562.294 81.5527 561.5 82.4984 561.044 83.6145C561.044 83.773 561.044 83.8722 561.242 83.7929C561.776 83.5719 562.349 83.464 562.927 83.4757C563.434 83.4536 563.941 83.5433 564.41 83.7386C564.879 83.9338 565.3 84.2298 565.642 84.6055C565.91 85.5179 565.91 86.4881 565.642 87.4004C565.186 87.4004 565.008 86.9643 564.552 86.9643C564.096 86.9643 563.759 87.2815 562.966 87.2815C562.173 87.2815 562.114 86.9049 561.618 86.9049C561.123 86.9049 560.786 87.4202 560.786 88.2131C560.786 91.3845 563.68 95.5273 566.732 95.5273C569.785 95.5273 572.679 91.3053 572.679 88.2131C572.679 87.4995 572.54 86.9247 571.926 86.8652C571.564 87.1606 571.104 87.3092 570.637 87.2815C569.844 87.2815 569.646 86.9643 569.19 86.9643C568.734 86.9643 568.695 88.114 568.041 88.1933C567.652 87.0357 567.652 85.783 568.041 84.6254C568.347 84.2712 568.724 83.9844 569.147 83.7831C569.57 83.5818 570.03 83.4704 570.499 83.4559C571.076 83.448 571.649 83.5559 572.183 83.773C572.362 83.773 572.421 83.773 572.382 83.5946C571.924 82.489 571.135 81.5522 570.124 80.9132C569.112 80.2743 567.927 79.9646 566.732 80.0268ZM571.093 84.447C570.728 84.4234 570.362 84.4785 570.02 84.6084C569.678 84.7384 569.368 84.9402 569.111 85.2002C569.077 85.2783 569.059 85.3627 569.059 85.448C569.059 85.5333 569.077 85.6177 569.111 85.6957C570.32 85.2993 571.371 85.2795 571.906 85.8543C572.011 85.7634 572.096 85.6508 572.154 85.5243C572.212 85.3977 572.243 85.2602 572.243 85.1209C572.243 84.7245 571.827 84.447 571.014 84.447M561.341 85.8543C561.798 85.575 562.319 85.419 562.854 85.4016C563.389 85.3842 563.92 85.5061 564.393 85.7552C564.393 85.1209 563.323 84.4272 562.193 84.4272C561.063 84.4272 560.964 84.7047 560.964 85.1011C560.971 85.2461 561.007 85.3881 561.072 85.5179C561.137 85.6477 561.229 85.7623 561.341 85.8543ZM580.409 75.4083C578.388 75.5254 576.451 76.2586 574.859 77.5094C575.484 75.7536 576.337 74.0875 577.396 72.554C574.885 72.734 572.515 73.7857 570.697 75.5273L569.369 72.0387L572.203 69.5808L568.239 69.3033L566.732 65.6165L565.166 69.2834L561.202 69.561L564.136 72.1576L562.768 75.5273C560.917 73.7745 558.513 72.7229 555.969 72.554C557.021 74.0921 557.873 75.7571 558.506 77.5094C556.887 76.2396 554.913 75.5052 552.857 75.4083C554.179 77.0839 555.303 78.9063 556.207 80.8394C556.223 80.8903 556.25 80.9369 556.287 80.9752C556.324 81.0135 556.369 81.0426 556.419 81.06C556.47 81.0774 556.523 81.0826 556.576 81.0753C556.629 81.068 556.679 81.0483 556.722 81.0178C559.803 79.4896 563.195 78.6944 566.633 78.6944C570.072 78.6944 573.464 79.4896 576.544 81.0178C576.588 81.0483 576.638 81.068 576.691 81.0753C576.743 81.0826 576.797 81.0774 576.847 81.06C576.898 81.0426 576.943 81.0135 576.98 80.9752C577.017 80.9369 577.044 80.8903 577.059 80.8394C577.949 78.8985 579.074 77.0744 580.409 75.4083ZM585.166 88.5897C589.468 87.1031 592.263 91.3449 595.573 90.3736C592.362 86.9643 589.765 83.0991 590.122 78.6194C590.135 78.5645 590.129 78.5069 590.106 78.4555C590.083 78.404 590.044 78.3616 589.994 78.3346C589.945 78.3076 589.888 78.2975 589.832 78.306C589.776 78.3145 589.725 78.3411 589.686 78.3816C588.021 79.6011 586.898 81.4214 586.554 83.4559C585.514 82.7628 584.323 82.3306 583.081 82.1961C581.839 82.0615 580.582 82.2285 579.418 82.6829C581.686 84.2924 583.635 86.3087 585.166 88.6293" fill="#00684D"/>
<rect x="217" y="227" width="100" height="100" rx="20" fill="white"/>
<path d="M279.003 247H279.43C279.772 251.231 278.157 254.393 276.195 256.683C274.269 258.956 271.631 261.162 267.366 260.827C267.081 256.656 268.699 253.729 270.659 251.445C272.477 249.316 275.81 247.422 279.003 247ZM291.916 291.042V291.16C290.717 294.791 289.007 297.902 286.92 300.79C285.016 303.412 282.681 306.939 278.513 306.939C274.911 306.939 272.519 304.624 268.828 304.56C264.923 304.497 262.776 306.497 259.206 307H257.989C255.367 306.621 253.252 304.544 251.71 302.674C247.165 297.146 243.653 290.006 243 280.869V278.184C243.277 271.645 246.454 266.328 250.678 263.751C252.906 262.381 255.971 261.214 259.383 261.736C260.845 261.962 262.339 262.463 263.648 262.958C264.889 263.435 266.441 264.281 267.911 264.236C268.907 264.207 269.898 263.688 270.901 263.322C273.842 262.26 276.724 261.043 280.523 261.615C285.089 262.305 288.33 264.334 290.332 267.464C286.47 269.922 283.416 273.626 283.938 279.952C284.402 285.698 287.742 289.06 291.916 291.042Z" fill="#CCD0D2"/>
<path d="M121.991 189.335L108.201 192.945C103.331 194.15 99.0716 195.755 94.9667 194.35C89.3868 191.94 89.4868 185.67 93.6467 179C86.2919 185.07 73.0572 204.479 90.9568 206.439C93.2367 206.739 97.2966 205.939 101.707 204.084L121.991 195.76L162 179.4L126.961 188.03L121.991 189.335Z" fill="#263238"/>
</svg>
