<svg width="120" height="120" viewBox="0 0 120 120" fill="none" xmlns="http://www.w3.org/2000/svg">
<rect x="1" y="1" width="118" height="118" rx="29" fill="#343A40" stroke="white" stroke-width="2"/>
<path fill-rule="evenodd" clip-rule="evenodd" d="M81.7456 38.7098L53.1317 67.3241L33.1501 47.3433L17 63.7937L52.7559 100L68.1552 83.9246L65.5261 81.7467L52.9064 95.0423L21.9577 63.568L32.9248 52.3757L53.0566 72.3573L86.774 38.7098H81.7456ZM45.3947 47.7182L52.5306 54.8546L87.2347 20L103.535 36.3753L53.4319 86.4792L30.4462 63.568L32.8502 61.4651L53.1317 81.8968L98.8029 36.2256L87.1601 24.6574L52.4557 59.7377L42.3146 49.3711L44.7182 46.9675L45.3947 47.7182Z" fill="#9FD181"/>
</svg>
