<svg width="500" height="500" viewBox="0 0 500 500" fill="none" xmlns="http://www.w3.org/2000/svg">
<path d="M369.181 111.211C369.285 111.211 369.387 111.203 369.487 111.188L372.578 110.709C373.087 110.629 373.53 110.346 373.794 109.929C374.057 109.513 374.123 108.991 373.977 108.499L372.284 102.786C372.18 102.437 372.369 101.89 372.693 101.592C373.021 101.29 373.33 100.958 373.615 100.604C373.776 100.406 374.06 100.275 374.314 100.463L378.181 103.39C378.622 103.723 379.137 103.821 379.586 103.66C380.038 103.498 380.372 103.098 380.501 102.561L381.553 98.1983C381.763 97.3253 381.455 96.1773 380.835 95.5273L377.035 91.5393C376.704 91.1933 376.392 90.4313 376.366 89.9083C376.32 88.9233 376.212 87.8943 376.046 86.8493C375.993 86.5163 376.214 86.1303 376.518 86.0233L378.955 85.1693C379.432 85.0023 379.813 84.6593 380.028 84.2043C380.243 83.7493 380.265 83.2363 380.091 82.7613L377.739 76.3903C377.411 75.4973 376.444 74.8103 375.49 74.7943L372.545 74.7443C372.128 74.7373 371.549 74.3913 371.329 74.0183C370.71 72.9683 370.046 71.9583 369.358 71.0143C369.06 70.6063 368.851 69.8313 368.913 69.3563L369.473 65.0303C369.587 64.1473 369.175 63.0323 368.51 62.4373L364.183 58.5463C363.777 58.1803 363.275 58.0393 362.806 58.1503C362.338 58.2653 361.958 58.6243 361.766 59.1363L360.509 62.4883C360.468 62.5983 360.403 62.6713 360.314 62.7063C360.216 62.7473 360.089 62.7353 359.967 62.6753C359.326 62.3643 358.679 62.1033 358.044 61.8963C357.565 61.7393 356.99 61.2533 356.815 60.8543L354.311 55.2053C353.918 54.3193 352.86 53.7423 351.904 53.8903L348.812 54.3693C348.303 54.4493 347.86 54.7333 347.598 55.1493C347.335 55.5653 347.267 56.0863 347.414 56.5793L349.106 62.2923C349.21 62.6413 349.023 63.1883 348.699 63.4873C348.372 63.7863 348.062 64.1193 347.776 64.4753C347.614 64.6763 347.328 64.8073 347.078 64.6173L343.212 61.6893C342.772 61.3553 342.259 61.2583 341.806 61.4193C341.354 61.5813 341.02 61.9813 340.891 62.5183L339.84 66.8803C339.629 67.7543 339.937 68.9023 340.559 69.5533L344.357 73.5413C344.689 73.8883 345.001 74.6493 345.025 75.1713C345.073 76.1693 345.182 77.1983 345.345 78.2313C345.4 78.5653 345.179 78.9503 344.874 79.0573L342.435 79.9113C341.957 80.0783 341.576 80.4213 341.362 80.8773C341.147 81.3333 341.125 81.8463 341.301 82.3213L343.651 88.6913C343.982 89.5853 344.949 90.2713 345.902 90.2873L348.847 90.3373C349.262 90.3443 349.842 90.6903 350.063 91.0653C350.678 92.1103 351.343 93.1203 352.034 94.0683C352.332 94.4773 352.541 95.2513 352.478 95.7243L351.918 100.051C351.805 100.934 352.217 102.049 352.879 102.643L357.207 106.535C357.614 106.901 358.114 107.047 358.585 106.93C359.053 106.816 359.432 106.456 359.624 105.945L360.881 102.593C360.922 102.484 360.987 102.41 361.075 102.375C361.176 102.334 361.298 102.344 361.422 102.406C362.066 102.716 362.711 102.978 363.343 103.185C363.822 103.341 364.398 103.828 364.577 104.227L367.08 109.875C367.432 110.666 368.314 111.211 369.181 111.211ZM374.046 98.9963C373.493 98.9963 372.94 99.2533 372.546 99.7443C372.299 100.05 372.038 100.329 371.763 100.583C371.052 101.237 370.719 102.327 370.969 103.176L372.662 108.889C372.697 109.006 372.686 109.112 372.635 109.196C372.582 109.28 372.489 109.334 372.37 109.352L369.279 109.831C368.932 109.888 368.48 109.642 368.337 109.317L365.833 103.668C365.451 102.808 364.507 102.117 363.772 101.878C363.199 101.69 362.609 101.452 362.022 101.168C361.549 100.94 361.032 100.912 360.568 101.098C360.119 101.278 359.774 101.637 359.597 102.109L358.34 105.46C358.306 105.553 358.266 105.591 358.255 105.596C358.252 105.594 358.199 105.578 358.126 105.512L353.797 101.62C353.47 101.325 353.224 100.659 353.28 100.223L353.84 95.8973C353.946 95.0823 353.647 93.9463 353.143 93.2553C352.477 92.3433 351.839 91.3713 351.245 90.3643C350.781 89.5793 349.76 88.9763 348.869 88.9613L345.925 88.9113C345.541 88.9053 345.071 88.5723 344.939 88.2123L342.589 81.8423C342.541 81.7153 342.547 81.5793 342.604 81.4593C342.66 81.3393 342.762 81.2483 342.889 81.2033L345.329 80.3493C346.256 80.0243 346.858 78.9973 346.702 78.0133C346.545 77.0303 346.442 76.0503 346.396 75.1033C346.357 74.2543 345.907 73.1743 345.35 72.5923L341.552 68.6053C341.253 68.2913 341.073 67.6233 341.175 67.2023V67.2013L342.226 62.8383C342.244 62.7673 342.264 62.7283 342.276 62.7123C342.286 62.7213 342.326 62.7363 342.385 62.7813L346.251 65.7083C347.062 66.3243 348.182 66.1613 348.848 65.3323C349.09 65.0303 349.353 64.7483 349.629 64.4953C350.341 63.8393 350.675 62.7483 350.423 61.9013L348.731 56.1883C348.697 56.0713 348.706 55.9663 348.758 55.8823C348.812 55.7983 348.904 55.7433 349.025 55.7253L352.116 55.2463C352.463 55.1893 352.915 55.4373 353.058 55.7613L355.562 61.4093C355.942 62.2683 356.885 62.9593 357.622 63.1993C358.197 63.3873 358.786 63.6253 359.372 63.9083C359.849 64.1393 360.367 64.1643 360.828 63.9793C361.276 63.7993 361.62 63.4403 361.797 62.9683L363.054 59.6173C363.088 59.5243 363.128 59.4873 363.139 59.4813C363.143 59.4833 363.195 59.4983 363.268 59.5653L367.596 63.4573C367.924 63.7523 368.171 64.4173 368.113 64.8533L367.554 69.1803C367.449 69.9973 367.75 71.1323 368.252 71.8213C368.915 72.7293 369.554 73.7023 370.15 74.7133C370.612 75.4973 371.633 76.1003 372.526 76.1153L375.47 76.1653C375.854 76.1713 376.322 76.5033 376.454 76.8623L378.805 83.2343C378.851 83.3613 378.846 83.4973 378.79 83.6173C378.733 83.7373 378.631 83.8283 378.504 83.8733L376.065 84.7273C375.139 85.0523 374.536 86.0783 374.691 87.0623C374.85 88.0573 374.952 89.0373 374.997 89.9733C375.038 90.8243 375.487 91.9033 376.041 92.4843L379.841 96.4723C380.139 96.7863 380.32 97.4553 380.218 97.8763L379.165 102.238C379.149 102.309 379.127 102.347 379.115 102.364C379.106 102.354 379.066 102.339 379.008 102.295L375.141 99.3683C374.81 99.1183 374.428 98.9963 374.046 98.9963ZM364.352 95.2643C364.913 95.2643 365.456 95.1853 365.974 95.0243C367.894 94.4283 369.273 92.7643 369.859 90.3383C371.149 84.9883 368.251 77.0863 363.398 72.7243C360.694 70.2923 357.788 69.3183 355.419 70.0533C353.499 70.6493 352.12 72.3123 351.535 74.7393C350.245 80.0893 353.143 87.9913 357.994 92.3533C360.106 94.2543 362.345 95.2643 364.352 95.2643ZM357.052 71.1853C358.711 71.1853 360.623 72.0753 362.479 73.7453C366.997 77.8063 369.708 85.1063 368.523 90.0173C368.049 91.9823 367.027 93.2603 365.567 93.7143C363.67 94.3003 361.247 93.4343 358.91 91.3353C354.394 87.2743 351.683 79.9743 352.867 75.0623C353.341 73.0963 354.363 71.8193 355.823 71.3653C356.213 71.2443 356.625 71.1853 357.052 71.1853Z" fill="#343A40"/>
<path d="M326.137 85.2496C326.21 85.2496 326.282 85.2437 326.354 85.2327L328.406 84.9137C328.775 84.8567 329.096 84.6507 329.288 84.3476C329.479 84.0446 329.529 83.6666 329.423 83.3086L328.298 79.5146C328.24 79.3216 328.353 79.0027 328.537 78.8316C328.757 78.6297 328.965 78.4076 329.161 78.1637C329.219 78.0927 329.355 77.9936 329.476 78.0886L332.044 80.0326C332.366 80.2766 332.747 80.3447 333.078 80.2277C333.414 80.1077 333.66 79.8146 333.755 79.4216L334.454 76.5237C334.601 75.9117 334.385 75.1057 333.949 74.6487L331.428 72.0006C331.226 71.7896 331.029 71.3066 331.012 70.9866C330.982 70.3256 330.909 69.6376 330.797 68.9426C330.771 68.7726 330.886 68.5676 331.041 68.5136L332.66 67.9456C333.004 67.8256 333.279 67.5786 333.435 67.2506C333.59 66.9216 333.607 66.5506 333.482 66.2076L331.918 61.9757C331.684 61.3427 331 60.8576 330.326 60.8456L328.37 60.8126C328.129 60.8086 327.781 60.5996 327.653 60.3816C327.246 59.6896 326.802 59.0167 326.339 58.3787C326.157 58.1307 326.025 57.6426 326.062 57.3556L326.434 54.4827C326.514 53.8637 326.225 53.0836 325.761 52.6666L322.886 50.0816C322.589 49.8146 322.227 49.7087 321.873 49.7937C321.527 49.8787 321.248 50.1417 321.108 50.5167L320.274 52.7426C320.166 52.8396 320.114 52.8337 320.062 52.8077C319.626 52.5977 319.195 52.4226 318.771 52.2846C318.483 52.1906 318.125 51.8886 318.021 51.6516L316.356 47.8997C316.079 47.2697 315.342 46.8537 314.643 46.9627L312.59 47.2817C312.221 47.3397 311.9 47.5467 311.709 47.8497C311.518 48.1517 311.468 48.5306 311.574 48.8876L312.698 52.6816C312.756 52.8756 312.643 53.1937 312.458 53.3647C312.238 53.5667 312.03 53.7896 311.835 54.0326C311.776 54.1047 311.646 54.2017 311.52 54.1087L308.952 52.1637C308.63 51.9187 308.253 51.8507 307.918 51.9687C307.582 52.0887 307.334 52.3827 307.241 52.7747L306.543 55.6716C306.394 56.2836 306.61 57.0897 307.045 57.5466L309.568 60.1956C309.77 60.4066 309.967 60.8896 309.982 61.2076C310.014 61.8696 310.087 62.5567 310.195 63.2527C310.224 63.4237 310.108 63.6287 309.954 63.6827L308.336 64.2506C307.989 64.3716 307.714 64.6196 307.56 64.9496C307.404 65.2776 307.389 65.6476 307.516 65.9907L309.078 70.2216C309.309 70.8536 309.994 71.3397 310.67 71.3517L312.626 71.3847C312.867 71.3887 313.215 71.5977 313.343 71.8157C313.75 72.5067 314.193 73.1807 314.657 73.8176C314.839 74.0667 314.971 74.5537 314.934 74.8407L314.563 77.7136C314.483 78.3316 314.772 79.1126 315.236 79.5306L318.11 82.1156C318.409 82.3836 318.78 82.4846 319.124 82.4026C319.471 82.3176 319.749 82.0536 319.889 81.6796L320.723 79.4547C320.833 79.3536 320.884 79.3646 320.935 79.3896C321.363 79.5976 321.798 79.7727 322.226 79.9137C322.515 80.0066 322.871 80.3086 322.976 80.5456L324.641 84.2987C324.889 84.8607 325.518 85.2496 326.137 85.2496ZM329.365 76.9206C328.966 76.9206 328.568 77.1046 328.285 77.4576C328.125 77.6566 327.956 77.8376 327.777 78.0026C327.275 78.4636 327.041 79.2346 327.218 79.8356L328.343 83.6296L328.234 83.7997L326.182 84.1187C325.985 84.1437 325.746 84.0087 325.673 83.8407L324.008 80.0886C323.745 79.4896 323.089 79.0067 322.577 78.8407C322.2 78.7177 321.816 78.5626 321.429 78.3746C321.085 78.2086 320.712 78.1897 320.373 78.3257C320.047 78.4567 319.796 78.7176 319.668 79.0586L318.834 81.2837L315.991 78.6917C315.802 78.5217 315.65 78.1087 315.681 77.8577L316.053 74.9846C316.126 74.4177 315.918 73.6296 315.57 73.1526C315.127 72.5446 314.706 71.9016 314.316 71.2416C313.99 70.6896 313.271 70.2666 312.645 70.2566L310.691 70.2236C310.483 70.2206 310.208 70.0266 310.138 69.8316L308.575 65.5997C308.549 65.5277 308.564 65.4676 308.582 65.4296C308.596 65.3986 308.633 65.3417 308.711 65.3147L310.33 64.7467C310.995 64.5137 311.426 63.7796 311.311 63.0746C311.208 62.4216 311.14 61.7746 311.11 61.1546C311.083 60.5686 310.771 59.8216 310.386 59.4176L307.865 56.7696C307.693 56.5896 307.581 56.1776 307.641 55.9386L308.339 53.0406L310.842 55.0086C311.43 55.4536 312.234 55.3377 312.715 54.7407C312.875 54.5417 313.044 54.3607 313.223 54.1967C313.725 53.7347 313.959 52.9646 313.782 52.3626L312.657 48.5686L312.628 48.4236L312.765 48.3987L314.818 48.0797C315.019 48.0477 315.254 48.1897 315.327 48.3567L316.992 52.1096C317.255 52.7076 317.912 53.1897 318.423 53.3577C318.8 53.4807 319.184 53.6357 319.572 53.8237C319.913 53.9897 320.288 54.0066 320.626 53.8727C320.952 53.7417 321.203 53.4816 321.331 53.1396L322.165 50.9137L325.008 53.5056C325.197 53.6746 325.349 54.0876 325.318 54.3386L324.946 57.2117C324.873 57.7797 325.081 58.5677 325.429 59.0447C325.872 59.6507 326.293 60.2947 326.683 60.9547C327.009 61.5057 327.726 61.9287 328.352 61.9397L330.308 61.9716C330.516 61.9746 330.79 62.1707 330.863 62.3647L332.425 66.5956C332.452 66.6716 332.432 66.7357 332.417 66.7667C332.399 66.8047 332.363 66.8547 332.29 66.8797L330.67 67.4477C330.007 67.6807 329.576 68.4136 329.686 69.1176C329.792 69.7726 329.86 70.4186 329.888 71.0387C329.918 71.6367 330.222 72.3666 330.612 72.7766L333.135 75.4257C333.307 75.6057 333.419 76.0177 333.361 76.2577L332.662 79.1556L330.159 77.1877C329.918 77.0087 329.642 76.9206 329.365 76.9206ZM322.927 74.6576C323.311 74.6576 323.683 74.6036 324.036 74.4936C325.349 74.0866 326.29 72.9536 326.688 71.3036C327.554 67.7146 325.614 62.4196 322.365 59.5006C320.541 57.8606 318.572 57.2037 316.961 57.7037C315.648 58.1107 314.707 59.2437 314.309 60.8937C313.443 64.4816 315.382 69.7767 318.631 72.6977C320.055 73.9777 321.567 74.6576 322.927 74.6576ZM318.08 58.6656C319.154 58.6656 320.398 59.2477 321.61 60.3386C324.584 63.0107 326.371 67.8106 325.592 71.0396C325.287 72.3057 324.633 73.1286 323.701 73.4176C322.482 73.7986 320.906 73.2286 319.385 71.8596C316.412 69.1866 314.627 64.3867 315.405 61.1586C315.711 59.8926 316.364 59.0707 317.296 58.7817C317.544 58.7037 317.807 58.6656 318.08 58.6656Z" fill="#343A40"/>
<path d="M187.572 373.736C187.675 373.736 187.778 373.728 187.878 373.713L190.969 373.234C191.478 373.154 191.921 372.87 192.185 372.454C192.448 372.038 192.514 371.516 192.367 371.024L190.675 365.311C190.571 364.962 190.76 364.415 191.083 364.117C191.411 363.815 191.72 363.483 192.005 363.129C192.166 362.931 192.45 362.8 192.704 362.988L196.571 365.915C197.012 366.248 197.527 366.346 197.976 366.185C198.428 366.023 198.762 365.623 198.891 365.086L199.943 360.723C200.153 359.85 199.845 358.702 199.226 358.052L195.426 354.064C195.095 353.718 194.783 352.956 194.757 352.433C194.711 351.448 194.603 350.419 194.437 349.374C194.384 349.041 194.605 348.655 194.91 348.548L197.347 347.694C197.824 347.527 198.205 347.184 198.42 346.729C198.635 346.273 198.657 345.761 198.483 345.286L196.131 338.915C195.803 338.022 194.836 337.335 193.882 337.319L190.937 337.269C190.52 337.262 189.942 336.916 189.721 336.543C189.102 335.493 188.438 334.483 187.75 333.539C187.452 333.131 187.243 332.356 187.305 331.881L187.865 327.555C187.979 326.672 187.567 325.557 186.902 324.962L182.575 321.07C182.169 320.704 181.667 320.563 181.199 320.674C180.73 320.789 180.351 321.148 180.159 321.66L178.902 325.012C178.861 325.122 178.796 325.195 178.707 325.23C178.609 325.271 178.482 325.259 178.36 325.199C177.719 324.889 177.072 324.627 176.438 324.42C175.959 324.263 175.384 323.777 175.208 323.378L172.704 317.729C172.311 316.843 171.252 316.266 170.297 316.414L167.205 316.893C166.696 316.973 166.253 317.257 165.991 317.673C165.728 318.089 165.66 318.611 165.807 319.103L167.5 324.816C167.603 325.165 167.417 325.712 167.093 326.011C166.766 326.31 166.456 326.643 166.17 326.999C166.008 327.2 165.722 327.331 165.472 327.141L161.606 324.213C161.166 323.879 160.653 323.782 160.2 323.943C159.748 324.105 159.414 324.505 159.285 325.042L158.234 329.404C158.023 330.278 158.331 331.426 158.953 332.077L162.751 336.065C163.083 336.412 163.395 337.173 163.42 337.695C163.468 338.693 163.577 339.722 163.74 340.755C163.795 341.089 163.574 341.474 163.269 341.581L160.83 342.435C160.352 342.603 159.971 342.946 159.757 343.401C159.542 343.857 159.52 344.37 159.696 344.845L162.046 351.215C162.377 352.109 163.344 352.795 164.297 352.811L167.242 352.861C167.657 352.868 168.237 353.214 168.458 353.589C169.073 354.633 169.738 355.644 170.43 356.592C170.728 357.001 170.937 357.775 170.874 358.248L170.314 362.575C170.201 363.458 170.613 364.573 171.275 365.167L175.603 369.059C176.01 369.425 176.51 369.571 176.981 369.454C177.45 369.34 177.828 368.98 178.02 368.469L179.277 365.117C179.318 365.007 179.383 364.934 179.472 364.899C179.573 364.858 179.695 364.868 179.819 364.93C180.463 365.241 181.108 365.502 181.74 365.709C182.219 365.865 182.795 366.352 182.974 366.751L185.477 372.399C185.822 373.19 186.704 373.736 187.572 373.736ZM192.437 361.521C191.884 361.521 191.331 361.778 190.937 362.268C190.69 362.574 190.429 362.853 190.154 363.107C189.443 363.761 189.11 364.851 189.36 365.7L191.053 371.413C191.088 371.53 191.077 371.636 191.026 371.72C190.973 371.804 190.88 371.858 190.761 371.876L187.67 372.355C187.323 372.412 186.871 372.166 186.728 371.841L184.224 366.192C183.842 365.332 182.898 364.64 182.163 364.402C181.59 364.214 181 363.976 180.413 363.692C179.94 363.464 179.423 363.436 178.959 363.622C178.51 363.802 178.165 364.161 177.988 364.633L176.731 367.984C176.697 368.077 176.657 368.115 176.646 368.12C176.643 368.118 176.59 368.102 176.517 368.036L172.189 364.144C171.862 363.849 171.616 363.183 171.672 362.747L172.232 358.421C172.338 357.606 172.039 356.47 171.535 355.78C170.869 354.868 170.231 353.895 169.637 352.889C169.173 352.104 168.152 351.501 167.261 351.486L164.317 351.436C163.933 351.43 163.463 351.097 163.331 350.738L160.981 344.368C160.933 344.241 160.939 344.105 160.996 343.985C161.052 343.865 161.154 343.774 161.281 343.729L163.721 342.875C164.648 342.55 165.25 341.523 165.093 340.539C164.937 339.556 164.833 338.576 164.787 337.629C164.748 336.78 164.298 335.7 163.741 335.118L159.944 331.131C159.645 330.817 159.465 330.149 159.567 329.729L160.618 325.366C160.636 325.294 160.656 325.256 160.669 325.24C160.679 325.249 160.719 325.265 160.778 325.309L164.644 328.236C165.455 328.852 166.574 328.689 167.24 327.86C167.482 327.558 167.745 327.276 168.021 327.023C168.733 326.367 169.067 325.276 168.815 324.429L167.123 318.716C167.089 318.599 167.098 318.493 167.15 318.41C167.204 318.325 167.296 318.271 167.417 318.253L170.508 317.774C170.855 317.717 171.307 317.965 171.45 318.289L173.954 323.938C174.334 324.797 175.277 325.488 176.014 325.728C176.589 325.916 177.178 326.154 177.764 326.437C178.241 326.668 178.759 326.693 179.22 326.508C179.668 326.328 180.012 325.969 180.19 325.497L181.447 322.146C181.481 322.053 181.521 322.016 181.531 322.01C181.535 322.012 181.587 322.027 181.66 322.094L185.988 325.986C186.316 326.281 186.563 326.946 186.505 327.382L185.946 331.709C185.841 332.526 186.142 333.662 186.644 334.351C187.307 335.259 187.946 336.232 188.542 337.243C189.004 338.027 190.025 338.63 190.918 338.645L193.862 338.695C194.246 338.701 194.715 339.033 194.847 339.392L197.199 345.764C197.245 345.891 197.24 346.027 197.184 346.147C197.127 346.267 197.025 346.358 196.898 346.403L194.459 347.257C193.533 347.582 192.93 348.608 193.085 349.592C193.244 350.587 193.346 351.567 193.391 352.503C193.432 353.354 193.881 354.433 194.435 355.014L198.235 359.002C198.533 359.316 198.714 359.985 198.612 360.406L197.56 364.768C197.543 364.839 197.522 364.877 197.509 364.894C197.499 364.885 197.46 364.869 197.402 364.825L193.535 361.897C193.201 361.643 192.818 361.521 192.437 361.521ZM182.742 357.788C183.303 357.788 183.846 357.709 184.363 357.548C186.283 356.952 187.662 355.288 188.248 352.862C189.538 347.512 186.64 339.61 181.787 335.249C179.083 332.817 176.177 331.843 173.808 332.578C171.888 333.174 170.509 334.837 169.923 337.264C168.634 342.614 171.531 350.516 176.382 354.878C178.497 356.778 180.735 357.788 182.742 357.788ZM175.443 333.709C177.101 333.709 179.014 334.599 180.87 336.269C185.388 340.33 188.099 347.629 186.914 352.541C186.44 354.506 185.417 355.784 183.958 356.238C182.061 356.824 179.638 355.958 177.301 353.859C172.785 349.798 170.074 342.498 171.258 337.586C171.732 335.621 172.754 334.343 174.214 333.889C174.604 333.768 175.015 333.709 175.443 333.709Z" fill="#343A40"/>
<path d="M226.489 379.642C226.562 379.642 226.633 379.637 226.706 379.625L228.758 379.306C229.127 379.25 229.448 379.043 229.64 378.74C229.831 378.437 229.881 378.059 229.775 377.701L228.65 373.907C228.592 373.714 228.705 373.395 228.89 373.224C229.11 373.022 229.318 372.799 229.514 372.556C229.572 372.485 229.708 372.386 229.829 372.481L232.397 374.425C232.719 374.668 233.1 374.737 233.431 374.62C233.767 374.5 234.013 374.207 234.108 373.814L234.807 370.916C234.954 370.304 234.738 369.498 234.302 369.041L231.78 366.393C231.578 366.182 231.381 365.699 231.364 365.379C231.334 364.718 231.261 364.03 231.149 363.335C231.123 363.165 231.238 362.96 231.392 362.906L233.011 362.338C233.355 362.218 233.63 361.971 233.786 361.643C233.941 361.314 233.958 360.943 233.833 360.6L232.269 356.368C232.035 355.735 231.351 355.25 230.677 355.238L228.721 355.205C228.48 355.201 228.132 354.992 228.004 354.774C227.597 354.083 227.153 353.409 226.689 352.771C226.507 352.522 226.375 352.035 226.413 351.748L226.785 348.875C226.865 348.256 226.576 347.476 226.112 347.059L223.237 344.474C222.94 344.207 222.578 344.101 222.224 344.186C221.878 344.271 221.599 344.534 221.459 344.909L220.625 347.134C220.518 347.231 220.465 347.225 220.413 347.199C219.977 346.988 219.546 346.814 219.122 346.676C218.834 346.582 218.476 346.28 218.372 346.043L216.707 342.29C216.43 341.66 215.693 341.244 214.994 341.354L212.941 341.673C212.572 341.731 212.252 341.938 212.06 342.241C211.869 342.543 211.819 342.922 211.925 343.279L213.049 347.073C213.107 347.266 212.994 347.585 212.81 347.756C212.59 347.958 212.382 348.181 212.186 348.424C212.127 348.496 211.998 348.593 211.871 348.5L209.303 346.555C208.981 346.31 208.604 346.242 208.269 346.36C207.933 346.48 207.685 346.774 207.592 347.166L206.894 350.063C206.745 350.675 206.962 351.481 207.396 351.937L209.919 354.586C210.121 354.797 210.318 355.28 210.333 355.598C210.365 356.26 210.438 356.947 210.546 357.643C210.575 357.814 210.459 358.019 210.305 358.072L208.687 358.64C208.34 358.761 208.065 359.01 207.911 359.339C207.756 359.667 207.74 360.037 207.867 360.38L209.429 364.611C209.66 365.243 210.346 365.729 211.021 365.741L212.977 365.774C213.218 365.778 213.566 365.987 213.694 366.205C214.101 366.896 214.545 367.57 215.008 368.207C215.19 368.456 215.322 368.943 215.285 369.23L214.913 372.103C214.833 372.721 215.122 373.502 215.586 373.92L218.46 376.505C218.759 376.773 219.13 376.874 219.474 376.792C219.821 376.707 220.099 376.443 220.239 376.069L221.073 373.844C221.183 373.743 221.234 373.754 221.285 373.779C221.713 373.987 222.148 374.162 222.576 374.303C222.865 374.397 223.221 374.698 223.326 374.935L224.991 378.688C225.241 379.253 225.87 379.642 226.489 379.642ZM229.717 371.313C229.318 371.313 228.92 371.497 228.637 371.85C228.477 372.049 228.308 372.23 228.129 372.395C227.627 372.856 227.393 373.627 227.57 374.228L228.694 378.022L228.585 378.192L226.533 378.511C226.336 378.536 226.097 378.401 226.024 378.233L224.359 374.481C224.096 373.882 223.44 373.399 222.927 373.233C222.55 373.11 222.166 372.955 221.779 372.767C221.435 372.6 221.062 372.582 220.723 372.718C220.397 372.849 220.146 373.11 220.019 373.451L219.185 375.676L216.342 373.085C216.153 372.915 216.001 372.502 216.032 372.251L216.404 369.378C216.477 368.811 216.269 368.023 215.921 367.546C215.478 366.938 215.057 366.295 214.667 365.635C214.341 365.083 213.622 364.66 212.996 364.65L211.042 364.617C210.834 364.614 210.559 364.419 210.489 364.225L208.926 359.993C208.9 359.921 208.915 359.861 208.933 359.823C208.947 359.792 208.984 359.736 209.062 359.708L210.681 359.14C211.346 358.907 211.776 358.173 211.662 357.468C211.559 356.815 211.491 356.168 211.461 355.548C211.434 354.962 211.122 354.215 210.737 353.811L208.216 351.163C208.044 350.983 207.933 350.571 207.992 350.332V350.331L208.69 347.434L211.193 349.402C211.781 349.847 212.584 349.731 213.066 349.134C213.226 348.935 213.395 348.754 213.574 348.59C214.077 348.128 214.31 347.357 214.133 346.756L213.009 342.962L212.98 342.817L213.117 342.792L215.17 342.473C215.371 342.442 215.606 342.583 215.679 342.75L217.344 346.503C217.607 347.101 218.263 347.583 218.775 347.751C219.152 347.874 219.536 348.029 219.924 348.217C220.265 348.383 220.64 348.4 220.978 348.266C221.304 348.135 221.555 347.875 221.683 347.533L222.517 345.308L225.36 347.9C225.549 348.069 225.701 348.482 225.67 348.733L225.298 351.606C225.225 352.174 225.433 352.961 225.781 353.439C226.224 354.045 226.645 354.689 227.035 355.349C227.361 355.9 228.078 356.323 228.704 356.334L230.66 356.366C230.868 356.369 231.142 356.565 231.215 356.76L232.777 360.991C232.804 361.067 232.784 361.131 232.769 361.162C232.751 361.2 232.715 361.25 232.642 361.276L231.022 361.844C230.359 362.077 229.928 362.81 230.038 363.514C230.144 364.168 230.212 364.814 230.24 365.435C230.27 366.033 230.574 366.763 230.964 367.173L233.487 369.822C233.659 370.002 233.77 370.414 233.713 370.654L233.014 373.552L230.511 371.584C230.27 371.401 229.994 371.313 229.717 371.313ZM223.279 369.051C223.663 369.051 224.035 368.997 224.388 368.887C225.701 368.48 226.642 367.347 227.04 365.697C227.906 362.108 225.967 356.813 222.717 353.894C220.893 352.254 218.924 351.597 217.313 352.097C216 352.505 215.059 353.637 214.661 355.287C213.795 358.875 215.734 364.17 218.983 367.091C220.407 368.371 221.919 369.051 223.279 369.051ZM218.432 353.059C219.506 353.059 220.75 353.641 221.962 354.732C224.936 357.404 226.723 362.204 225.944 365.433C225.639 366.699 224.985 367.522 224.053 367.811C222.834 368.191 221.258 367.622 219.737 366.253C216.764 363.58 214.979 358.779 215.757 355.551C216.062 354.285 216.716 353.463 217.648 353.174C217.896 353.096 218.159 353.059 218.432 353.059Z" fill="#343A40"/>
<path opacity="0.4" d="M239.841 61.7922C239.841 60.6892 240.239 59.9262 240.875 59.5822V59.5752L243.531 58.0582L243.537 58.0612C244.153 57.6842 245.012 57.7212 245.966 58.2722L393.293 143.336C395.165 144.417 396.682 147.045 396.682 149.207V280.694C396.682 281.783 396.295 282.544 395.673 282.894V282.897L392.956 284.449C392.343 284.805 391.493 284.755 390.555 284.214L243.226 199.152C241.354 198.071 239.836 195.443 239.836 193.281L239.841 61.7922Z" fill="#9FD181"/>
<path opacity="0.4" d="M239.844 61.794V193.283C239.844 195.441 241.355 198.073 243.231 199.152L390.563 284.214C392.223 285.177 393.609 284.587 393.892 282.927C393.701 282.869 393.502 282.769 393.294 282.653L245.962 197.591C244.094 196.512 242.575 193.889 242.575 191.722V60.234C242.575 59.985 242.592 59.761 242.633 59.553C241.048 58.964 239.844 59.869 239.844 61.794Z" fill="#9FD181"/>
<path d="M243.23 59.8281L254.571 66.7881L284.578 84.3451L321.504 105.743L363.954 130.284L382.452 140.923L387.076 143.583L389.388 144.913C389.755 145.13 390.201 145.365 390.502 145.569C390.826 145.791 391.133 146.053 391.414 146.347C392.519 147.529 393.308 149.156 393.351 150.724L393.359 156.053L393.383 209.906L393.507 237.183C393.574 265.635 393.769 253.798 393.944 282.25C394.12 253.798 394.316 265.635 394.382 237.183L394.507 209.906L394.532 156.053L394.536 150.713C394.467 148.711 393.575 146.937 392.283 145.522C391.951 145.172 391.58 144.852 391.171 144.571C390.732 144.281 390.387 144.107 389.99 143.869L387.682 142.532L383.066 139.857L364.603 129.158L322.124 104.667L285.129 83.3881L254.919 66.1821L243.23 59.8281Z" fill="white"/>
<g opacity="0.5">
<path d="M370.551 250.097L378.469 254.669V161.783L370.551 157.211V250.097Z" fill="white"/>
<path d="M356.574 242.027L364.492 246.599V153.713L356.574 149.141V242.027Z" fill="white"/>
<path d="M342.602 233.956L350.52 238.528V145.642L342.602 141.07V233.956Z" fill="white"/>
<path d="M328.625 225.894L336.543 230.466V137.58L328.625 133.008V225.894Z" fill="white"/>
<path d="M314.652 217.824L322.57 222.395V129.509L314.652 124.938V217.824Z" fill="white"/>
<path d="M300.676 209.753L308.594 214.324V121.438L300.676 116.867V209.753Z" fill="white"/>
<path d="M286.703 201.683L294.621 206.254V113.368L286.703 108.797V201.683Z" fill="white"/>
<path d="M272.73 193.62L280.648 198.191V105.305L272.73 100.734V193.62Z" fill="white"/>
<path d="M258.754 185.549L266.672 190.121V97.2351L258.754 92.6641V185.549Z" fill="white"/>
</g>
<path d="M371.055 260.666L377.493 264.383C377.899 264.617 378.228 265.246 378.228 265.787V265.933C378.228 266.474 377.899 266.723 377.493 266.489L371.055 262.772C370.649 262.538 370.32 261.909 370.32 261.368V261.222C370.32 260.681 370.649 260.432 371.055 260.666Z" fill="#455A64"/>
<path d="M357.075 252.596L363.513 256.313C363.919 256.547 364.248 257.176 364.248 257.717V257.863C364.248 258.404 363.919 258.653 363.513 258.419L357.075 254.702C356.669 254.468 356.34 253.839 356.34 253.298V253.152C356.34 252.611 356.67 252.362 357.075 252.596Z" fill="#455A64"/>
<path d="M343.094 244.525L349.532 248.242C349.938 248.476 350.267 249.105 350.267 249.646V249.792C350.267 250.333 349.938 250.582 349.532 250.347L343.094 246.63C342.688 246.396 342.359 245.767 342.359 245.226V245.08C342.359 244.54 342.688 244.291 343.094 244.525Z" fill="#455A64"/>
<path d="M329.118 236.455L335.556 240.172C335.962 240.406 336.291 241.035 336.291 241.576V241.722C336.291 242.263 335.962 242.512 335.556 242.278L329.118 238.561C328.712 238.327 328.383 237.698 328.383 237.157V237.011C328.383 236.47 328.712 236.221 329.118 236.455Z" fill="#455A64"/>
<path d="M315.137 228.377L321.575 232.094C321.981 232.328 322.31 232.957 322.31 233.498V233.644C322.31 234.185 321.981 234.434 321.575 234.2L315.137 230.483C314.731 230.249 314.402 229.62 314.402 229.079V228.933C314.402 228.392 314.731 228.143 315.137 228.377Z" fill="#455A64"/>
<path d="M301.157 220.307L307.595 224.024C308.001 224.258 308.33 224.887 308.33 225.428V225.574C308.33 226.115 308.001 226.364 307.595 226.129L301.157 222.412C300.751 222.178 300.422 221.549 300.422 221.008V220.862C300.422 220.322 300.751 220.073 301.157 220.307Z" fill="#455A64"/>
<path d="M287.18 212.236L293.618 215.953C294.024 216.187 294.353 216.816 294.353 217.357V217.503C294.353 218.044 294.024 218.293 293.618 218.059L287.18 214.342C286.774 214.108 286.445 213.479 286.445 212.938V212.792C286.445 212.251 286.774 212.002 287.18 212.236Z" fill="#455A64"/>
<path d="M273.2 204.166L279.638 207.883C280.044 208.117 280.373 208.746 280.373 209.287V209.433C280.373 209.974 280.044 210.223 279.638 209.989L273.2 206.272C272.794 206.038 272.465 205.409 272.465 204.868V204.722C272.465 204.181 272.794 203.932 273.2 204.166Z" fill="#455A64"/>
<path d="M259.219 196.096L265.657 199.813C266.063 200.047 266.392 200.676 266.392 201.217V201.363C266.392 201.904 266.063 202.153 265.657 201.918L259.219 198.201C258.813 197.967 258.484 197.338 258.484 196.797V196.651C258.484 196.11 258.813 195.861 259.219 196.096Z" fill="#455A64"/>
<path d="M378.465 233.923L370.547 229.352V250.096L378.465 254.668V233.923Z" fill="#9FD181"/>
<path d="M364.492 204.455L356.574 199.883V242.028L364.492 246.6V204.455Z" fill="#9FD181"/>
<path d="M350.516 169.713L342.598 165.141V233.959L350.516 238.531V169.713Z" fill="#9FD181"/>
<path d="M336.543 198.908L328.625 194.336V225.895L336.543 230.467V198.908Z" fill="#9FD181"/>
<path d="M322.566 183.821L314.648 179.25V217.823L322.566 222.394V183.821Z" fill="#9FD181"/>
<path d="M308.594 163.838L300.676 159.266V209.758L308.594 214.329V163.838Z" fill="#9FD181"/>
<path d="M294.617 182.915L286.699 178.344V201.684L294.617 206.255V182.915Z" fill="#9FD181"/>
<path d="M280.645 167.407L272.727 162.836V193.622L280.645 198.193V167.407Z" fill="#9FD181"/>
<path d="M266.672 154.399L258.754 149.828V185.552L266.672 190.124V154.399Z" fill="#9FD181"/>
<path d="M378.465 182.064L370.547 177.492V229.354L378.465 233.925V182.064Z" fill="#9FD181"/>
<path d="M364.492 185.782L356.574 181.211V199.883L364.492 204.455V185.782Z" fill="#9FD181"/>
<path d="M350.516 153.424L342.598 148.852V165.145L350.516 169.717V153.424Z" fill="#9FD181"/>
<path d="M336.543 157.86L328.625 153.289V194.336L336.543 198.908V157.86Z" fill="#9FD181"/>
<path d="M322.566 166.463L314.648 161.891V179.249L322.566 183.82V166.463Z" fill="#9FD181"/>
<path d="M308.594 121.438L300.676 116.867V159.261L308.594 163.833V121.438Z" fill="#9FD181"/>
<path d="M294.617 162.494L286.699 157.922V178.345L294.617 182.916V162.494Z" fill="#9FD181"/>
<path d="M280.645 121.228L272.727 116.656V162.835L280.645 167.406V121.228Z" fill="#9FD181"/>
<path d="M266.672 138.321L258.754 133.75V149.826L266.672 154.397V138.321Z" fill="#9FD181"/>
<g opacity="0.4">
<path d="M378.469 182.064L370.551 177.492V229.354L378.469 233.925V182.064Z" fill="white"/>
<path d="M364.492 185.782L356.574 181.211V199.883L364.492 204.455V185.782Z" fill="white"/>
<path d="M350.52 153.424L342.602 148.852V165.145L350.52 169.717V153.424Z" fill="white"/>
<path d="M336.543 157.86L328.625 153.289V194.336L336.543 198.908V157.86Z" fill="white"/>
<path d="M322.57 166.463L314.652 161.891V179.249L322.57 183.82V166.463Z" fill="white"/>
<path d="M308.594 121.446L300.676 116.875V159.269L308.594 163.841V121.446Z" fill="white"/>
<path d="M294.621 162.502L286.703 157.93V178.353L294.621 182.924V162.502Z" fill="white"/>
<path d="M280.648 121.228L272.73 116.656V162.835L280.648 167.406V121.228Z" fill="white"/>
<path d="M266.672 138.321L258.754 133.75V149.826L266.672 154.397V138.321Z" fill="white"/>
</g>
<path opacity="0.1" d="M104.002 107.127C104.002 106.024 104.401 105.261 105.036 104.917V104.91L107.692 103.393L107.698 103.397C108.314 103.02 109.173 103.057 110.127 103.608L288.296 206.478C290.168 207.559 291.685 210.187 291.685 212.349L291.684 357.345C291.684 358.434 291.297 359.195 290.676 359.545V359.548L287.959 361.1C287.345 361.456 286.496 361.406 285.558 360.865L107.39 257.995C105.518 256.914 104 254.286 104 252.124L104.002 107.127Z" fill="#9FD181"/>
<path opacity="0.1" d="M107.392 105.174L285.561 208.044C287.433 209.125 288.95 211.753 288.95 213.915V358.911C288.95 361.072 287.432 361.949 285.56 360.868L107.39 257.999C105.518 256.918 104 254.29 104 252.128L104.003 107.131C104.003 104.97 105.52 104.093 107.392 105.174Z" fill="#9FD181"/>
<path opacity="0.15" d="M104.004 107.131V252.126C104.004 254.293 105.515 256.915 107.391 258.003L285.559 360.869C287.228 361.824 288.606 361.25 288.896 359.59C288.705 359.525 288.506 359.425 288.298 359.309L110.121 256.443C108.253 255.355 106.734 252.732 106.734 250.566V105.57C106.734 105.321 106.75 105.097 106.792 104.889C105.207 104.301 104.004 105.205 104.004 107.131Z" fill="#9FD181"/>
<path d="M107.391 105.172L182.712 149.061L218.183 169.776L253.722 190.373L271.492 200.671L280.393 205.792L284.844 208.352C286.277 209.067 287.268 210.371 287.882 211.834C288.182 212.573 288.35 213.314 288.334 214.103L288.337 216.67L288.343 221.804L288.356 232.073L288.381 252.611L288.497 293.687L288.674 298.051L288.95 358.909L289.226 298.051L289.403 293.687L289.52 252.611L289.546 232.073L289.559 221.804L289.565 216.67L289.568 214.103C289.591 213.178 289.379 212.212 289.033 211.37C288.692 210.511 288.211 209.72 287.621 209.007C287.323 208.652 286.989 208.323 286.626 208.021C286.26 207.722 285.821 207.466 285.471 207.266L281.029 204.691L272.144 199.543L254.341 189.303L218.735 168.823L183.06 148.461L107.391 105.172Z" fill="white"/>
<path opacity="0.3" d="M120.305 127.938L129.204 133.075L129.87 133.455L138.769 138.6L139.427 138.98L148.334 144.117L148.992 144.495L157.899 149.641L158.557 150.021L167.456 155.158L168.114 155.538L177.021 160.683L177.679 161.062L186.586 166.2L187.244 166.579L195.679 171.454L196.143 171.725L196.809 172.105L205.708 177.242L206.366 177.63L215.273 182.767L215.931 183.146L225.496 188.672L234.395 193.809L235.061 194.189L243.024 198.794L243.96 199.333L244.618 199.714L253.525 204.851L254.183 205.23L263.082 210.376L263.748 210.756L272.647 215.893L273.305 216.273V315.013L120.134 226.581L119.645 226.294V127.562L120.305 127.938ZM263.75 308.607L272.649 313.743V300.643L263.75 295.507V308.607ZM263.75 294.63L272.649 299.767V286.668L263.75 281.531V294.63ZM263.75 280.654L272.649 285.79V272.69L263.75 267.553V280.654ZM263.75 266.668L272.649 271.812V258.714L263.75 253.568V266.668ZM263.75 252.691L272.649 257.829V244.729L263.75 239.592V252.691ZM263.75 238.715L272.649 243.852V230.752L263.75 225.615V238.715ZM263.75 224.73L272.649 229.874V216.775L263.75 211.63V224.73ZM254.185 303.091L263.084 308.228V295.128L254.185 289.991V303.091ZM254.185 289.104L263.084 294.25V281.15L254.185 276.005V289.104ZM254.185 275.129L263.084 280.266V267.165L254.185 262.029V275.129ZM254.185 261.152L263.084 266.288V253.189L254.185 248.053V261.152ZM254.185 247.167L263.084 252.312V239.212L254.185 234.066V247.167ZM254.185 233.189L263.084 238.327V225.227L254.185 220.09V233.189ZM254.185 219.213L263.084 224.35V211.249L254.185 206.113V219.213ZM244.62 297.565L253.527 302.703V289.604L244.62 284.466V297.565ZM244.62 283.589L253.527 288.725V275.626L244.62 270.488V283.589ZM244.62 269.604L253.527 274.749V261.648L244.62 256.504V269.604ZM244.62 255.627L253.527 260.764V247.663L244.62 242.527V255.627ZM244.62 241.65L253.527 246.786V233.687L244.62 228.549V241.65ZM244.62 227.665L253.527 232.81V219.71L244.62 214.564V227.665ZM244.62 213.688L253.527 218.825V205.725L244.62 200.588V213.688ZM235.063 292.04L243.962 297.186V284.086L235.063 278.94V292.04ZM235.063 278.064L243.962 283.208V270.109L235.063 264.965V278.064ZM235.063 264.087L243.962 269.224V256.124L235.063 250.988V264.087ZM235.063 250.109L243.962 255.247V242.146L235.063 237.01V250.109ZM235.063 236.124L243.962 241.27V228.17L235.063 223.025V236.124ZM235.063 222.148L243.962 227.285V214.185L235.063 209.048V222.148ZM235.063 208.172L243.962 213.309V200.208L235.063 195.064V208.172ZM225.498 286.523L234.397 291.66V278.561L225.498 273.423V286.523ZM225.498 272.547L234.397 277.684V264.583L225.498 259.447V272.547ZM225.498 258.562L234.397 263.706V250.607L225.498 245.463V258.562ZM225.498 244.586L234.397 249.723V236.622L225.498 231.486V244.586ZM225.498 230.609L234.397 235.745V222.646L225.498 217.508V230.609ZM225.498 216.622L234.397 221.768V208.668L225.498 203.523V216.622ZM225.498 202.646L234.397 207.784V194.684L225.498 189.547V202.646ZM215.932 280.999L224.84 286.143V273.044L215.932 267.898V280.999ZM215.932 267.022L224.84 272.16V259.068L215.932 253.923V267.022ZM215.932 253.046L224.84 258.183V245.083L215.932 239.946V253.046ZM215.932 239.068L224.84 244.206V231.107L215.932 225.962V239.068ZM215.932 225.083L224.84 230.229V217.12L215.932 211.984V225.083ZM215.932 211.107L224.84 216.243V203.144L215.932 198.007V211.107ZM215.932 197.13L224.84 202.267V189.167L215.932 184.021V197.13ZM206.367 275.483L215.274 280.62V267.52L206.367 262.383V275.483ZM206.367 261.506L215.274 266.643V253.543L206.367 248.406V261.506ZM206.367 247.521L215.274 252.665V239.566L206.367 234.421V247.521ZM206.367 233.544L215.274 238.68V225.581L206.367 220.445V233.544ZM206.367 219.566L215.274 224.704V211.605L206.367 206.467V219.566ZM206.367 205.581L215.274 210.727V197.627L206.367 192.482V205.581ZM206.367 191.605L215.274 196.742V183.642L206.367 178.505V191.605ZM196.81 269.957L205.709 275.103V262.003L196.81 256.857V269.957ZM196.81 255.98L205.709 261.118V248.019L196.81 242.882V255.98ZM196.81 242.004L205.709 247.141V234.04L196.81 228.904V242.004ZM196.81 228.019L205.709 233.163V220.064L196.81 214.919V228.019ZM196.81 214.042L205.709 219.178V206.079L196.81 200.941V214.042ZM196.81 200.066L205.709 205.202V192.103L196.81 186.965V200.066ZM196.81 186.079L205.709 191.225V178.124L196.81 172.98V186.079ZM187.245 264.441L196.144 269.578V256.48L187.245 251.342V264.441ZM187.245 250.456L196.144 255.601V242.501L187.245 237.355V250.456ZM187.245 236.48L196.144 241.624V228.525L187.245 223.381V236.48ZM187.245 222.503L196.144 227.64V214.54L187.245 209.402V222.503ZM187.245 208.517L196.144 213.661V200.562L187.245 195.417V208.517ZM187.245 194.54L196.144 199.686V186.586L187.245 181.441V194.54ZM187.245 180.564L196.144 185.701V172.601L187.245 167.464V180.564ZM177.68 258.917L186.587 264.062V250.962L177.68 245.816V258.917ZM177.68 244.939L186.587 250.077V236.977L177.68 231.84V244.939ZM177.68 230.963L186.587 236.1V222.999L177.68 217.863V230.963ZM177.68 216.978L186.587 222.122V209.023L177.68 203.878V216.978ZM177.68 203.001L186.587 208.137V195.038L177.68 189.9V203.001ZM177.68 189.023L186.587 194.161V181.061L177.68 175.924V189.023ZM177.68 175.038L186.587 180.184V167.083L177.68 161.939V175.038ZM168.114 253.4L177.021 258.536V245.437L168.114 240.299V253.4ZM168.114 239.415L177.021 244.56V231.46L168.114 226.314V239.415ZM168.114 225.438L177.021 230.575V217.475L168.114 212.338V225.438ZM168.114 211.461L177.022 216.598V203.497L168.115 198.361L168.114 211.461ZM168.114 197.476L177.021 202.62V189.521L168.114 184.376V197.476ZM168.114 183.499L177.021 188.635V175.536L168.114 170.398V183.499ZM168.114 169.523L177.021 174.66V161.561L168.114 156.424V169.523ZM158.558 247.874L167.457 253.012V239.911L158.558 234.775V247.874ZM158.558 233.898L167.457 239.035V225.935L158.558 220.798V233.898ZM158.558 219.922L167.457 225.059V211.96L158.558 206.823V219.922ZM158.558 205.936L167.457 211.081V197.973L158.558 192.836V205.936ZM158.558 191.96L167.457 197.096V183.997L158.558 178.859V191.96ZM158.558 177.982L167.457 183.12V170.02L158.558 164.874V177.982ZM158.558 163.997L167.457 169.143V156.035L158.558 150.898V163.997ZM148.992 242.35L157.899 247.495V234.395L148.992 229.258V242.35ZM148.992 228.372L157.899 233.518V220.418L148.992 215.273V228.372ZM148.992 214.396L157.899 219.534V206.435L148.992 201.298V214.396ZM148.992 200.42L157.899 205.557V192.456L148.992 187.32V200.42ZM148.992 186.435L157.899 191.579V178.48L148.992 173.335V186.435ZM148.992 172.458L157.899 177.594V164.495L148.992 159.357V172.458ZM148.992 158.48L157.899 163.618V150.518L148.992 145.381V158.48ZM139.427 236.833L148.334 241.971V228.87L139.427 223.734V236.833ZM139.427 222.857L148.334 227.993V214.894L139.427 209.757V222.857ZM139.427 208.872L148.334 214.018V200.918L139.427 195.773V208.872ZM139.427 194.895L148.334 200.032V186.932L139.427 181.795V194.895ZM139.427 180.918L148.334 186.055V172.954L139.427 167.818V180.918ZM139.427 166.933L148.334 172.077V158.979L139.427 153.833V166.933ZM139.427 152.956L148.334 158.092V144.993L139.427 139.857V152.956ZM129.87 231.309L138.769 236.454V223.355L129.87 218.21V231.309ZM129.87 217.331L138.769 222.477V209.378L129.87 204.232V217.331ZM129.87 203.355L138.769 208.492V195.392L129.87 190.255V203.355ZM129.87 189.379L138.769 194.516V181.415L129.87 176.271V189.379ZM129.87 175.393L138.769 180.538V167.438L129.87 162.293V175.393ZM129.87 161.417L138.769 166.553V153.454L129.87 148.316V161.417ZM129.87 147.43L138.769 152.576V139.476L129.87 134.331V147.43ZM120.305 225.792L129.204 230.928V217.829L120.305 212.691V225.792ZM120.305 211.816L129.204 216.952V203.853L120.305 198.715V211.816ZM120.305 197.829L129.204 202.975V189.874L120.305 184.73V197.829ZM120.305 183.854L129.204 188.991V175.891L120.305 170.754V183.854ZM120.305 169.877L129.204 175.014V161.913L120.305 156.777V169.877ZM120.305 155.892L129.204 161.036V147.937L120.305 142.792V155.892ZM120.305 141.915L129.204 147.051V133.953L120.305 128.816V141.915Z" fill="white"/>
<path d="M119.641 226.293V133.211L135.008 169.224L150.374 179.848L165.741 198.181L181.108 204.25L196.474 222.687L211.841 219.541L227.208 234.72L242.574 257.232L257.941 266.104L273.307 294.438V315.012L119.641 226.293Z" fill="#9FD181"/>
<path opacity="0.7" d="M119.641 226.293V133.211L135.008 169.224L150.374 179.848L165.741 198.181L181.108 204.25L196.474 222.687L211.841 219.541L227.208 234.72L242.574 257.232L257.941 266.104L273.307 294.438V315.012L119.641 226.293Z" fill="white"/>
<path d="M273.306 326.766C273.451 326.766 273.593 326.69 273.671 326.555C273.788 326.353 273.719 326.095 273.517 325.979L119.851 237.26C119.648 237.143 119.391 237.211 119.275 237.414C119.159 237.616 119.227 237.874 119.429 237.99L273.095 326.709C273.162 326.748 273.235 326.766 273.306 326.766Z" fill="#455A64"/>
<path d="M273.309 330.16C273.542 330.16 273.731 329.971 273.731 329.738V322.953C273.731 322.72 273.542 322.531 273.309 322.531C273.076 322.531 272.887 322.72 272.887 322.953V329.738C272.887 329.971 273.076 330.16 273.309 330.16Z" fill="#455A64"/>
<path d="M257.942 321.293C258.175 321.293 258.364 321.104 258.364 320.871V314.086C258.364 313.853 258.175 313.664 257.942 313.664C257.709 313.664 257.52 313.853 257.52 314.086V320.871C257.52 321.104 257.709 321.293 257.942 321.293Z" fill="#455A64"/>
<path d="M242.574 312.418C242.807 312.418 242.996 312.229 242.996 311.996V305.211C242.996 304.978 242.807 304.789 242.574 304.789C242.341 304.789 242.152 304.978 242.152 305.211V311.996C242.152 312.229 242.341 312.418 242.574 312.418Z" fill="#455A64"/>
<path d="M227.207 303.543C227.44 303.543 227.629 303.354 227.629 303.121V296.336C227.629 296.103 227.44 295.914 227.207 295.914C226.974 295.914 226.785 296.103 226.785 296.336V303.121C226.785 303.355 226.974 303.543 227.207 303.543Z" fill="#455A64"/>
<path d="M211.84 294.676C212.073 294.676 212.262 294.487 212.262 294.254V287.469C212.262 287.236 212.073 287.047 211.84 287.047C211.607 287.047 211.418 287.236 211.418 287.469V294.254C211.419 294.486 211.608 294.676 211.84 294.676Z" fill="#455A64"/>
<path d="M196.477 285.801C196.71 285.801 196.899 285.612 196.899 285.379V278.594C196.899 278.361 196.71 278.172 196.477 278.172C196.244 278.172 196.055 278.361 196.055 278.594V285.379C196.055 285.613 196.244 285.801 196.477 285.801Z" fill="#455A64"/>
<path d="M181.109 276.933C181.342 276.933 181.531 276.744 181.531 276.511V269.727C181.531 269.494 181.342 269.305 181.109 269.305C180.876 269.305 180.688 269.494 180.688 269.727V276.511C180.688 276.745 180.876 276.933 181.109 276.933Z" fill="#455A64"/>
<path d="M165.742 268.058C165.975 268.058 166.164 267.869 166.164 267.636V260.852C166.164 260.619 165.975 260.43 165.742 260.43C165.509 260.43 165.32 260.619 165.32 260.852V267.636C165.32 267.869 165.509 268.058 165.742 268.058Z" fill="#455A64"/>
<path d="M150.375 259.184C150.608 259.184 150.797 258.995 150.797 258.762V251.977C150.797 251.744 150.608 251.555 150.375 251.555C150.142 251.555 149.953 251.744 149.953 251.977V258.762C149.953 258.995 150.142 259.184 150.375 259.184Z" fill="#455A64"/>
<path d="M135.008 250.316C135.241 250.316 135.43 250.128 135.43 249.895V243.109C135.43 242.876 135.241 242.688 135.008 242.688C134.775 242.688 134.586 242.876 134.586 243.109V249.895C134.586 250.128 134.775 250.316 135.008 250.316Z" fill="#455A64"/>
<path d="M119.641 241.441C119.874 241.441 120.063 241.253 120.063 241.02V234.235C120.063 234.002 119.874 233.812 119.641 233.812C119.408 233.812 119.219 234.002 119.219 234.235V241.02C119.219 241.253 119.408 241.441 119.641 241.441Z" fill="#455A64"/>
<path d="M119.641 226.286V158.141L135.008 188.793L150.374 192.656L165.741 208.536L181.108 213.62L196.474 228.201L211.841 225.883L227.208 240.767L242.574 265.205L257.941 276.493L273.307 300.238V315.005L119.641 226.286Z" fill="#9FD181"/>
<path opacity="0.4" d="M119.641 226.286V158.141L135.008 188.793L150.374 192.656L165.741 208.536L181.108 213.62L196.474 228.201L211.841 225.883L227.208 240.767L242.574 265.205L257.941 276.493L273.307 300.238V315.005L119.641 226.286Z" fill="white"/>
<path d="M273.307 315.005L119.641 226.286V178.32L135.436 205.27L150.374 208.708L165.316 232.91L181.108 234.254L195.967 246.982L211.841 239.482L227.208 251.486L242.574 277.108L257.941 285.37L273.307 305.152V315.005Z" fill="#9FD181"/>
<path opacity="0.2" d="M257.959 306.151L242.574 297.268V257.232L257.941 266.104L257.959 306.151ZM227.208 288.396L211.841 279.524V219.54L227.208 234.719V288.396ZM196.474 270.652L181.107 261.78V204.25L196.474 222.687V270.652ZM165.741 252.909L150.374 244.037V179.848L165.741 198.181V252.909ZM135.008 169.224V235.165L119.641 226.293V133.211L135.008 169.224Z" fill="#9FD181"/>
<path opacity="0.15" d="M196.474 246.743V270.646L190.405 267.142L181.107 261.774V234.255L195.966 246.982L196.474 246.743ZM257.949 285.382L257.959 306.145L242.574 297.262V277.109L257.941 285.371L257.949 285.382ZM227.208 288.39L222.086 285.433L211.842 279.518V239.482L227.209 251.486L227.208 288.39ZM135.008 204.54V235.158L119.641 226.286V178.32L135.008 204.54ZM165.741 232.947V252.903L150.374 244.031V208.71L165.315 232.911L165.741 232.947Z" fill="black"/>
<path d="M254.723 326.917L261.161 330.634C261.567 330.868 261.896 331.497 261.896 332.038V332.184C261.896 332.725 261.567 332.974 261.161 332.74L254.723 329.023C254.317 328.789 253.988 328.16 253.988 327.619V327.473C253.988 326.931 254.317 326.682 254.723 326.917Z" fill="#37474F"/>
<path d="M239.356 318.049L245.794 321.766C246.2 322 246.529 322.629 246.529 323.17V323.316C246.529 323.857 246.2 324.106 245.794 323.872L239.356 320.155C238.95 319.921 238.621 319.292 238.621 318.751V318.605C238.621 318.063 238.95 317.815 239.356 318.049Z" fill="#37474F"/>
<path d="M223.989 309.174L230.427 312.891C230.833 313.125 231.162 313.754 231.162 314.295V314.441C231.162 314.982 230.833 315.231 230.427 314.997L223.989 311.28C223.583 311.046 223.254 310.417 223.254 309.876V309.73C223.254 309.188 223.583 308.94 223.989 309.174Z" fill="#37474F"/>
<path d="M208.622 300.299L215.06 304.016C215.466 304.25 215.795 304.879 215.795 305.42V305.566C215.795 306.107 215.466 306.356 215.06 306.121L208.622 302.404C208.216 302.17 207.887 301.541 207.887 301V300.854C207.887 300.314 208.216 300.065 208.622 300.299Z" fill="#37474F"/>
<path d="M193.258 291.432L199.696 295.149C200.102 295.383 200.431 296.012 200.431 296.553V296.699C200.431 297.24 200.102 297.489 199.696 297.255L193.258 293.538C192.852 293.304 192.523 292.675 192.523 292.134V291.988C192.523 291.447 192.852 291.198 193.258 291.432Z" fill="#37474F"/>
<path d="M177.891 282.557L184.329 286.274C184.735 286.508 185.064 287.137 185.064 287.678V287.824C185.064 288.365 184.735 288.614 184.329 288.38L177.891 284.663C177.485 284.429 177.156 283.8 177.156 283.259V283.113C177.156 282.572 177.485 282.323 177.891 282.557Z" fill="#37474F"/>
<path d="M162.524 273.69L168.962 277.407C169.368 277.641 169.697 278.27 169.697 278.811V278.957C169.697 279.498 169.368 279.747 168.962 279.513L162.524 275.796C162.118 275.562 161.789 274.933 161.789 274.392V274.246C161.789 273.704 162.118 273.455 162.524 273.69Z" fill="#37474F"/>
<path d="M147.157 264.815L153.595 268.532C154.001 268.766 154.33 269.395 154.33 269.936V270.082C154.33 270.623 154.001 270.872 153.595 270.638L147.157 266.921C146.751 266.687 146.422 266.058 146.422 265.517V265.371C146.422 264.829 146.751 264.58 147.157 264.815Z" fill="#37474F"/>
<path d="M131.79 255.94L138.228 259.657C138.634 259.891 138.963 260.52 138.963 261.061V261.207C138.963 261.748 138.634 261.997 138.228 261.763L131.79 258.046C131.384 257.812 131.055 257.183 131.055 256.642V256.496C131.055 255.954 131.384 255.705 131.79 255.94Z" fill="#37474F"/>
<path d="M257.942 257.032C258.175 257.032 258.364 256.843 258.364 256.61V231.938C258.364 231.705 258.175 231.516 257.942 231.516C257.709 231.516 257.52 231.705 257.52 231.938V256.61C257.52 256.843 257.709 257.032 257.942 257.032Z" fill="#9FD181"/>
<path d="M259.473 232.828C259.872 232.828 260.244 232.733 260.576 232.542C261.359 232.09 261.79 231.173 261.79 229.959C261.79 227.604 260.192 224.837 258.153 223.66C257.101 223.052 256.09 222.967 255.309 223.419C254.526 223.871 254.094 224.789 254.094 226.003C254.094 228.358 255.692 231.125 257.731 232.302C258.337 232.651 258.93 232.828 259.473 232.828ZM256.414 223.976C256.808 223.976 257.257 224.115 257.731 224.389C259.504 225.413 260.946 227.911 260.946 229.958C260.946 230.858 260.664 231.516 260.153 231.811C259.642 232.106 258.932 232.021 258.152 231.571C256.379 230.547 254.937 228.049 254.937 226.002C254.937 225.102 255.219 224.444 255.729 224.149C255.93 224.033 256.16 223.976 256.414 223.976Z" fill="#9FD181"/>
<path d="M211.84 210.469C212.073 210.469 212.262 210.28 212.262 210.047V199.828C212.262 199.595 212.073 199.406 211.84 199.406C211.607 199.406 211.418 199.595 211.418 199.828V210.047C211.419 210.28 211.608 210.469 211.84 210.469Z" fill="#9FD181"/>
<path d="M213.374 200.712C213.773 200.712 214.145 200.617 214.478 200.425C215.261 199.973 215.692 199.056 215.692 197.842C215.692 195.487 214.094 192.719 212.054 191.542C211.003 190.936 209.994 190.849 209.21 191.302C208.428 191.754 207.996 192.672 207.996 193.886C207.996 196.241 209.594 199.008 211.633 200.186C212.238 200.536 212.831 200.712 213.374 200.712ZM210.314 191.86C210.708 191.86 211.157 191.999 211.631 192.272C213.404 193.296 214.847 195.794 214.847 197.842C214.847 198.741 214.565 199.4 214.054 199.695C213.542 199.99 212.832 199.905 212.052 199.455C210.279 198.431 208.837 195.932 208.837 193.885C208.837 192.985 209.119 192.327 209.629 192.032C209.831 191.917 210.061 191.86 210.314 191.86Z" fill="#9FD181"/>
<path d="M165.742 189.105C165.975 189.105 166.164 188.916 166.164 188.683V172.43C166.164 172.197 165.975 172.008 165.742 172.008C165.509 172.008 165.32 172.197 165.32 172.43V188.683C165.32 188.916 165.509 189.105 165.742 189.105Z" fill="#9FD181"/>
<path d="M167.273 173.32C167.672 173.32 168.045 173.225 168.376 173.034C169.159 172.582 169.591 171.664 169.591 170.45C169.591 168.095 167.993 165.328 165.954 164.151C164.902 163.544 163.892 163.459 163.11 163.911C162.327 164.363 161.895 165.281 161.895 166.495C161.895 168.85 163.493 171.617 165.532 172.794C166.138 173.143 166.73 173.32 167.273 173.32ZM164.214 164.468C164.608 164.468 165.057 164.606 165.531 164.88C167.304 165.904 168.746 168.402 168.746 170.449C168.746 171.349 168.464 172.007 167.953 172.302C167.441 172.598 166.731 172.512 165.952 172.062C164.179 171.038 162.737 168.54 162.737 166.493C162.737 165.593 163.019 164.935 163.53 164.64C163.731 164.525 163.961 164.468 164.214 164.468Z" fill="#9FD181"/>
<path d="M273.29 281.942C273.426 281.942 273.563 281.909 273.691 281.839C274.101 281.617 274.252 281.105 274.03 280.696L261.691 257.938C261.617 257.801 261.507 257.687 261.372 257.61L243.163 247.101L227.905 224.747C227.875 224.703 227.84 224.661 227.801 224.623L212.434 209.443C212.234 209.244 211.949 209.159 211.673 209.216L196.8 212.261L181.756 194.212C181.666 194.103 181.55 194.019 181.418 193.967L166.251 187.977L151.022 169.808C150.973 169.75 150.918 169.699 150.855 169.656L138.913 161.402L123.643 125.614C123.461 125.185 122.963 124.988 122.536 125.169C122.108 125.352 121.909 125.848 122.091 126.276L137.457 162.289C137.519 162.435 137.622 162.561 137.753 162.652L149.802 170.98L165.095 189.226C165.186 189.334 165.301 189.417 165.432 189.469L180.599 195.458L195.828 213.729C196.026 213.967 196.34 214.078 196.644 214.016L211.569 210.96L226.559 225.766L241.879 248.211C241.95 248.316 242.044 248.403 242.153 248.466L260.322 258.952L272.548 281.5C272.7 281.782 272.99 281.942 273.29 281.942Z" fill="white"/>
<path d="M121.699 132.924C122.165 132.924 122.543 132.547 122.543 132.081V126.035L127.634 128.995C128.036 129.228 128.552 129.092 128.787 128.69C129.021 128.287 128.884 127.771 128.482 127.537L122.123 123.841C121.862 123.689 121.541 123.688 121.278 123.839C121.016 123.989 120.855 124.268 120.855 124.57V132.082C120.856 132.546 121.233 132.924 121.699 132.924Z" fill="white"/>
<path d="M198.55 94.8816L203.369 92.0926L194.046 84.1406L189.227 86.9236L198.55 94.8816Z" fill="#9FD181"/>
<path d="M195.592 96.7211C198.056 94.9751 202.339 96.2931 205.959 97.4371C206.831 97.7281 207.621 97.9891 208.333 98.2081C208.576 98.7961 208.689 99.3591 208.689 99.8881C208.689 102.695 206.309 101.929 201.134 100.226C199.416 99.6801 197.543 99.0941 195.788 98.8191C195.631 100.248 194.639 101.545 190.77 99.5081L195.592 96.7211Z" fill="#9FD181"/>
<path d="M207.531 133.272L212.35 130.488V124.797L207.531 127.586V133.272Z" fill="#9FD181"/>
<path d="M199.363 111.668C199.363 113.929 201.066 115.947 203.582 117.413C207.6 119.745 209.161 117.846 209.505 115.989L210.354 115.496C209.778 115.33 209.131 115.045 208.402 114.624C206.497 113.514 205.061 112.084 204.479 110.476C201.506 109.502 199.363 109.122 199.363 111.668Z" fill="#9FD181"/>
<path d="M217.284 125.613C217.786 125.285 218.422 125.182 219.044 125.186C219.14 124.901 219.228 124.603 219.302 124.283L224.121 121.5C223.642 123.591 222.685 124.896 221.42 125.616L221.423 125.617L216.613 128.397C216.613 128.397 215.799 126.583 217.284 125.613Z" fill="#9FD181"/>
<path d="M201.132 100.227C206.307 101.93 208.687 102.696 208.687 99.8891C208.687 99.3611 208.574 98.7971 208.331 98.2091C211.862 99.3011 213.506 99.4381 213.506 97.1051C213.506 95.3901 212.349 93.2771 209.156 91.4201C205.75 89.4441 203.845 89.9071 203.37 92.0971L194.047 84.1451C194.087 84.0261 194.134 83.9171 194.177 83.8021C193.712 83.7121 193.167 83.5141 192.523 83.1661L196.367 80.8811C196.486 80.8031 196.61 80.7301 196.736 80.6611L196.794 80.6271V80.6311C197.798 80.1081 199.019 79.9031 200.456 80.0321C201.856 80.1511 203.465 80.5901 205.275 81.3561V81.2551L200.454 78.4521L205.275 75.6661V75.6641L208.542 77.5641L212.965 80.1361L212.964 80.1371L212.967 80.1391V85.8241C219.495 90.5781 223.578 96.7911 223.578 103.509C223.578 106.57 222.751 108.306 221.418 109.19C221.421 109.191 221.425 109.193 221.425 109.193L221.361 109.229C221.247 109.302 221.128 109.368 221.006 109.429L216.972 111.7C216.874 110.894 216.982 110.307 217.217 109.883C216.026 109.748 214.745 109.442 213.441 109.06C208.539 107.576 204.189 105.25 204.189 108.882C204.189 109.434 204.29 109.968 204.48 110.478C201.507 109.505 199.365 109.125 199.365 111.671C199.365 113.932 201.068 115.95 203.584 117.415C207.602 119.747 209.162 117.848 209.507 115.991L210.356 115.498L214.326 113.201L224.124 121.503L219.305 124.286C219.121 125.075 218.872 125.758 218.563 126.334C216.682 126.364 214.521 125.746 212.35 124.797V127.099L204.73 126.055V120.37C198.131 115.504 193.573 108.946 193.573 102.098C193.573 100.668 193.769 99.5401 194.119 98.6621C196.302 98.7081 198.854 99.5031 201.132 100.227Z" fill="#9FD181"/>
<path opacity="0.4" d="M201.132 100.227C206.307 101.93 208.687 102.696 208.687 99.8891C208.687 99.3611 208.574 98.7971 208.331 98.2091C211.862 99.3011 213.506 99.4381 213.506 97.1051C213.506 95.3901 212.349 93.2771 209.156 91.4201C205.75 89.4441 203.845 89.9071 203.37 92.0971L194.047 84.1451C194.087 84.0261 194.134 83.9171 194.177 83.8021C193.712 83.7121 193.167 83.5141 192.523 83.1661L196.367 80.8811C196.486 80.8031 196.61 80.7301 196.736 80.6611L196.794 80.6271V80.6311C197.798 80.1081 199.019 79.9031 200.456 80.0321C201.856 80.1511 203.465 80.5901 205.275 81.3561V81.2551L200.454 78.4521L205.275 75.6661V75.6641L208.542 77.5641L212.965 80.1361L212.964 80.1371L212.967 80.1391V85.8241C219.495 90.5781 223.578 96.7911 223.578 103.509C223.578 106.57 222.751 108.306 221.418 109.19C221.421 109.191 221.425 109.193 221.425 109.193L221.361 109.229C221.247 109.302 221.128 109.368 221.006 109.429L216.972 111.7C216.874 110.894 216.982 110.307 217.217 109.883C216.026 109.748 214.745 109.442 213.441 109.06C208.539 107.576 204.189 105.25 204.189 108.882C204.189 109.434 204.29 109.968 204.48 110.478C201.507 109.505 199.365 109.125 199.365 111.671C199.365 113.932 201.068 115.95 203.584 117.415C207.602 119.747 209.162 117.848 209.507 115.991L210.356 115.498L214.326 113.201L224.124 121.503L219.305 124.286C219.121 125.075 218.872 125.758 218.563 126.334C216.682 126.364 214.521 125.746 212.35 124.797V127.099L204.73 126.055V120.37C198.131 115.504 193.573 108.946 193.573 102.098C193.573 100.668 193.769 99.5401 194.119 98.6621C196.302 98.7081 198.854 99.5031 201.132 100.227Z" fill="white"/>
<path d="M194.12 98.6601C196.304 98.7081 198.856 99.5031 201.134 100.227C206.309 101.93 208.689 102.696 208.689 99.8891C208.689 99.3611 208.576 98.7971 208.333 98.2091C207.781 96.8981 206.547 95.4911 204.333 94.2031C200.933 92.2271 199.028 92.6961 198.553 94.8851L189.23 86.9271C190.126 84.2391 191.942 82.8381 194.642 82.7791C196.262 82.7371 198.209 83.1881 200.458 84.1381V78.4531L205.277 81.2541L208.143 82.9221V88.6071C214.677 93.3661 218.76 99.5801 218.76 106.292C218.76 107.823 218.552 109.028 218.178 109.954C216.736 113.556 212.784 113.064 208.624 111.841C207.164 111.402 205.746 110.886 204.482 110.476C201.509 109.503 199.366 109.123 199.366 111.669C199.366 113.93 201.069 115.948 203.585 117.414C207.603 119.746 209.164 117.847 209.508 115.99L219.306 124.287C219.122 125.076 218.873 125.759 218.564 126.334C217.288 128.726 215.009 129.384 212.35 129.034C210.831 128.838 209.187 128.304 207.531 127.586V133.271L199.911 128.873V123.153C193.312 118.293 188.754 111.735 188.754 104.881C188.755 99.9481 191.093 98.5891 194.12 98.6601Z" fill="#9FD181"/>
<g opacity="0.2">
<path d="M194.12 98.6601C196.304 98.7081 198.856 99.5031 201.134 100.227C206.309 101.93 208.689 102.696 208.689 99.8891C208.689 99.3611 208.576 98.7971 208.333 98.2091C207.781 96.8981 206.547 95.4911 204.333 94.2031C200.933 92.2271 199.028 92.6961 198.553 94.8851L189.23 86.9271C190.126 84.2391 191.942 82.8381 194.642 82.7791C196.262 82.7371 198.209 83.1881 200.458 84.1381V78.4531L205.277 81.2541L208.143 82.9221V88.6071C214.677 93.3661 218.76 99.5801 218.76 106.292C218.76 107.823 218.552 109.028 218.178 109.954C216.736 113.556 212.784 113.064 208.624 111.841C207.164 111.402 205.746 110.886 204.482 110.476C201.509 109.503 199.366 109.123 199.366 111.669C199.366 113.93 201.069 115.948 203.585 117.414C207.603 119.746 209.164 117.847 209.508 115.99L219.306 124.287C219.122 125.076 218.873 125.759 218.564 126.334C217.288 128.726 215.009 129.384 212.35 129.034C210.831 128.838 209.187 128.304 207.531 127.586V133.271L199.911 128.873V123.153C193.312 118.293 188.754 111.735 188.754 104.881C188.755 99.9481 191.093 98.5891 194.12 98.6601Z" fill="white"/>
</g>
<path d="M208.145 88.6058L212.966 85.8198V80.1328L208.145 82.9188V88.6058Z" fill="#9FD181"/>
<path d="M199.912 123.148C199.912 123.148 199.641 122.932 199.166 122.554C198.927 122.366 198.639 122.137 198.324 121.856C198.008 121.575 197.637 121.278 197.261 120.919C196.881 120.565 196.461 120.191 196.05 119.76C195.842 119.548 195.628 119.33 195.409 119.108C195.199 118.877 194.984 118.642 194.766 118.402C194.543 118.167 194.33 117.915 194.12 117.656C193.909 117.398 193.686 117.144 193.479 116.874C193.071 116.329 192.65 115.782 192.279 115.199C191.879 114.635 191.544 114.03 191.198 113.445C190.883 112.842 190.567 112.253 190.322 111.653C190.044 111.067 189.858 110.468 189.642 109.915C189.559 109.63 189.478 109.353 189.399 109.085C189.36 108.951 189.321 108.819 189.283 108.69C189.254 108.558 189.227 108.429 189.199 108.302C189.091 107.795 188.982 107.332 188.937 106.912C188.88 106.494 188.816 106.131 188.811 105.827C188.775 105.222 188.754 104.875 188.754 104.875C188.754 104.875 188.762 105.222 188.776 105.829C188.771 106.134 188.821 106.5 188.863 106.921C188.892 107.345 188.983 107.814 189.085 108.326C189.11 108.454 189.135 108.585 189.161 108.718C189.197 108.849 189.233 108.983 189.269 109.118C189.343 109.39 189.419 109.671 189.497 109.959C189.702 110.52 189.876 111.131 190.156 111.722C190.4 112.329 190.715 112.926 191.028 113.536C191.372 114.128 191.706 114.741 192.106 115.312C192.484 115.897 192.913 116.446 193.327 116.992C193.537 117.262 193.763 117.516 193.977 117.775C194.191 118.034 194.406 118.286 194.632 118.521C194.854 118.76 195.073 118.994 195.286 119.224C195.511 119.443 195.73 119.658 195.944 119.866C196.365 120.29 196.795 120.657 197.183 121.004C197.565 121.359 197.95 121.643 198.277 121.912C198.603 122.182 198.899 122.401 199.145 122.579C199.633 122.942 199.912 123.148 199.912 123.148Z" fill="white"/>
<path d="M125.457 46.9174C125.53 46.4484 125.913 46.2804 126.378 46.5474L170.438 71.9244C170.696 72.0744 170.928 72.3284 171.096 72.6214L175.166 70.2654C174.998 69.9854 174.774 69.7444 174.525 69.6024L130.461 44.2254C129.949 43.9284 129.114 43.9244 128.593 44.2164L126.382 45.4794C125.913 45.7464 125.521 46.3624 125.457 46.9174Z" fill="#ADADAD"/>
<path d="M170.441 113.511C170.99 113.826 171.843 113.809 172.311 113.522L174.522 112.255C175.038 111.967 175.46 111.248 175.46 110.654V71.2166C175.46 70.9066 175.344 70.5666 175.163 70.2656L171.098 72.6216C171.27 72.9096 171.373 73.2416 171.373 73.5386V112.972C171.372 113.516 170.989 113.829 170.441 113.511Z" fill="#E0E0E0"/>
<path d="M175.459 84.0312L182.957 91.6583C183.357 92.0653 183.218 92.6713 182.815 92.9333C182.661 93.0343 178.75 95.3113 178.75 95.3113L171.371 86.4273L175.459 84.0312Z" fill="#ADADAD"/>
<path d="M170.857 113.394C171.099 113.394 171.126 113.101 171.126 112.976V94.1859C171.126 94.1859 178.213 95.2069 178.219 95.2069C178.574 95.2069 178.745 95.0249 178.815 94.8559C178.908 94.6359 178.862 94.4019 178.693 94.2309L171.125 86.5319V73.5419C171.125 73.0359 170.754 72.3949 170.316 72.1419L126.253 46.7669C126.146 46.7049 126.045 46.6719 125.96 46.6719C125.718 46.6719 125.691 46.9649 125.691 47.0899V86.5249C125.691 87.0309 126.061 87.6719 126.499 87.9249L170.563 113.299C170.671 113.361 170.772 113.394 170.857 113.394Z" fill="#343A40"/>
<path d="M125.968 46.9159C125.957 46.9389 125.939 46.9939 125.939 47.0869V86.5219C125.939 86.9429 126.259 87.4979 126.624 87.7079L170.688 113.084C170.786 113.141 170.842 113.145 170.844 113.156C170.853 113.145 170.879 113.089 170.879 112.973V94.4689V93.8989L171.443 93.9799L178.235 94.9599C178.254 94.9629 178.273 94.9639 178.291 94.9639C178.486 94.9639 178.567 94.8059 178.588 94.7579C178.619 94.6829 178.652 94.5369 178.518 94.4009L171.021 86.7739L170.879 86.6299V86.4279V73.5389C170.879 73.1179 170.559 72.5629 170.194 72.3529L126.13 46.9769C126.043 46.9259 125.989 46.9169 125.968 46.9159ZM125.961 46.4219C126.086 46.4219 126.228 46.4629 126.377 46.5489L170.441 71.9249C170.955 72.2219 171.373 72.9449 171.373 73.5389V86.4279L178.87 94.0549C179.393 94.5869 178.995 95.4579 178.292 95.4579C178.251 95.4579 178.208 95.4549 178.165 95.4489L171.373 94.4689V112.974C171.373 113.396 171.163 113.639 170.857 113.639C170.732 113.639 170.59 113.598 170.441 113.512L126.377 88.1359C125.863 87.8389 125.445 87.1159 125.445 86.5219V47.0869C125.445 46.6649 125.655 46.4219 125.961 46.4219Z" fill="#E0E0E0"/>
<path d="M164.215 79.846C164.641 79.846 165.056 79.625 165.286 79.229C165.627 78.639 165.424 77.883 164.834 77.542L132.735 59.009C132.143 58.669 131.389 58.87 131.048 59.461C130.708 60.051 130.91 60.807 131.501 61.148L163.6 79.681C163.794 79.793 164.006 79.846 164.215 79.846Z" fill="#E0E0E0"/>
<path d="M164.215 86.7994C164.641 86.7994 165.056 86.5784 165.286 86.1824C165.627 85.5924 165.424 84.8364 164.834 84.4954L132.735 65.9624C132.143 65.6214 131.389 65.8244 131.048 66.4144C130.708 67.0044 130.91 67.7604 131.501 68.1014L163.6 86.6344C163.794 86.7454 164.006 86.7994 164.215 86.7994Z" fill="#E0E0E0"/>
<path d="M164.215 93.7449C164.641 93.7449 165.056 93.5239 165.286 93.1279C165.627 92.5379 165.424 91.7819 164.834 91.4409L132.735 72.9079C132.143 72.5669 131.389 72.7689 131.048 73.3599C130.708 73.9499 130.91 74.7059 131.501 75.0469L163.6 93.5799C163.794 93.6919 164.006 93.7449 164.215 93.7449Z" fill="#E0E0E0"/>
<path d="M164.215 100.697C164.641 100.697 165.056 100.476 165.286 100.08C165.627 99.4904 165.424 98.7344 164.834 98.3934L132.735 79.8604C132.143 79.5204 131.389 79.7224 131.048 80.3124C130.708 80.9024 130.91 81.6584 131.501 81.9994L163.6 100.532C163.794 100.644 164.006 100.697 164.215 100.697Z" fill="#E0E0E0"/>
<path d="M265.219 365.97L284.66 339.066L291.745 334.984L311.186 384.337L304.102 388.419L300.078 386.096V425.999L300.064 425.991L292.993 430.065V430.081L292.98 430.073L276.326 420.459L276.329 372.385L265.219 365.97Z" fill="#9FD181"/>
<path d="M304.101 388.416L284.66 339.062L265.219 365.967L276.329 372.382L276.326 420.456L292.98 430.07L292.993 430.078V382.003L304.101 388.416Z" fill="#9FD181"/>
<path opacity="0.3" d="M304.101 388.416L284.66 339.062L265.219 365.967L276.329 372.382L276.326 420.456L292.98 430.07L292.993 430.078V382.003L304.101 388.416Z" fill="black"/>
<path opacity="0.15" d="M284.66 339.066L291.745 334.984L311.186 384.337L304.101 388.419L284.66 339.066Z" fill="black"/>
<path opacity="0.45" d="M304.1 388.421L292.992 382.008V430.083L300.077 426.001V386.098L304.1 388.421Z" fill="black"/>
<path d="M308.594 410.283L328.036 383.379L335.12 379.297L354.561 428.65L347.478 432.732L343.453 430.409V451.038L343.44 451.03L336.369 455.104V455.12L336.355 455.112L319.702 445.497L319.705 416.698L308.594 410.283Z" fill="#9FD181"/>
<path d="M347.477 432.736L328.036 383.383L308.594 410.287L319.705 416.702L319.702 445.501L336.355 455.116L336.369 455.124V426.323L347.477 432.736Z" fill="#9FD181"/>
<path opacity="0.3" d="M347.477 432.736L328.036 383.383L308.594 410.287L319.705 416.702L319.702 445.501L336.355 455.116L336.369 455.124V426.323L347.477 432.736Z" fill="white"/>
<path opacity="0.55" d="M328.035 383.379L335.119 379.297L354.56 428.65L347.476 432.732L328.035 383.379Z" fill="white"/>
<path opacity="0.1" d="M347.479 432.733L336.371 426.32V455.121L343.455 451.039V430.41L347.479 432.733Z" fill="white"/>
</svg>
