<svg width="532" height="278" viewBox="0 0 532 278" fill="none" xmlns="http://www.w3.org/2000/svg">
<path d="M298.868 169.747H282.02V79.7127H349.432V95.1656H298.868V111.09H349.432V126.608H298.868V169.747ZM406.715 169.747H389.867L353.896 79.7127H370.744L398.28 148.692L425.816 79.7127H442.685L406.715 169.747ZM526.495 169.747H509.626L501.771 150.001H462.409L454.554 169.747H437.706L473.677 79.6484H490.524L526.495 169.747ZM495.053 133.154L482.09 100.767L469.148 133.154H495.053Z" fill="#9FD181" stroke="#9FD181" stroke-width="0.288" stroke-miterlimit="22.9256"/>
<path d="M291.414 239.765H283.875V199.474H314.042V206.389H291.414V213.516H314.042V220.459H291.414V239.765ZM327.518 239.765H319.978V199.474H327.518V239.765ZM367.981 239.765H360.441L342.097 212.891V239.765H334.558V199.474H342.097L360.441 226.347V199.474H367.981V239.765ZM410.173 239.765H402.624L399.109 230.928H381.494L377.979 239.765H370.439L386.536 199.445H394.076L410.173 239.765ZM396.102 223.389L390.302 208.896L384.51 223.389H396.102ZM445.873 239.765H438.333L419.989 212.891V239.765H412.449V199.474H419.989L438.333 226.347V199.474H445.873V239.765ZM477.654 239.765H462.68C460.337 239.765 458.281 239.025 456.534 237.555C454.776 236.086 453.691 234.175 453.278 231.831C452.605 227.759 452.269 223.687 452.269 219.614C452.269 215.532 452.605 211.46 453.278 207.407C453.691 205.064 454.776 203.152 456.534 201.683C458.281 200.204 460.337 199.474 462.68 199.474H477.654C480.017 199.474 482.072 200.204 483.81 201.683C485.558 203.152 486.643 205.064 487.076 207.407C487.508 210.048 487.796 212.709 487.949 215.369H480.237C480.055 214.072 479.786 212.795 479.45 211.537C479.056 210.154 478.307 208.953 477.212 207.945C476.117 206.927 474.878 206.418 473.485 206.418H466.877C465.485 206.418 464.246 206.927 463.141 207.945C462.046 208.953 461.297 210.154 460.904 211.537C460.173 214.226 459.809 216.915 459.809 219.614C459.809 222.323 460.173 225.022 460.904 227.72C461.297 229.094 462.046 230.285 463.141 231.294C464.246 232.311 465.485 232.811 466.877 232.811H473.485C474.878 232.811 476.117 232.311 477.212 231.294C478.307 230.285 479.056 229.094 479.45 227.72C479.786 226.424 480.055 225.146 480.237 223.869H487.949C487.796 226.53 487.508 229.18 487.076 231.831C486.643 234.175 485.558 236.086 483.81 237.555C482.072 239.025 480.017 239.765 477.654 239.765ZM524.139 239.765H493.971V199.474H524.139V206.389H501.511V213.516H524.139V220.459H501.511V232.811H524.139V239.765Z" fill="#343A40"/>
<path fill-rule="evenodd" clip-rule="evenodd" d="M213.134 61.5904L118.941 155.785L53.164 90.0106L0 144.163L117.704 263.35L168.396 210.432L159.742 203.262L118.199 247.03L16.32 143.42L52.4224 106.577L118.694 172.354L229.687 61.5904H213.134ZM93.4719 91.245L116.962 114.737L231.204 0L284.864 53.9055L119.929 218.841L44.2632 143.42L52.1767 136.498L118.941 203.757L269.285 53.4127L230.958 15.3317L116.716 130.811L83.3325 96.686L91.245 88.7736L93.4719 91.245Z" fill="#9FD181"/>
</svg>
