<svg width="50" height="50" viewBox="0 0 50 50" fill="none" xmlns="http://www.w3.org/2000/svg">
<path d="M25 3.125C20.6735 3.125 16.4442 4.40795 12.8469 6.8116C9.24959 9.21526 6.44581 12.6317 4.79014 16.6288C3.13448 20.6259 2.70128 25.0243 3.54533 29.2676C4.38938 33.5109 6.47277 37.4087 9.53205 40.468C12.5913 43.5272 16.4891 45.6106 20.7324 46.4547C24.9757 47.2987 29.3741 46.8655 33.3712 45.2099C37.3683 43.5542 40.7848 40.7504 43.1884 37.1531C45.5921 33.5558 46.875 29.3265 46.875 25C46.8688 19.2003 44.5621 13.6399 40.4611 9.53889C36.3601 5.43788 30.7997 3.1312 25 3.125ZM25 43.75C21.2916 43.75 17.6665 42.6503 14.5831 40.5901C11.4996 38.5298 9.09641 35.6014 7.67727 32.1753C6.25813 28.7492 5.88681 24.9792 6.61029 21.3421C7.33376 17.7049 9.11952 14.364 11.7418 11.7417C14.364 9.11951 17.7049 7.33375 21.3421 6.61028C24.9792 5.8868 28.7492 6.25812 32.1753 7.67726C35.6014 9.0964 38.5298 11.4996 40.5901 14.5831C42.6503 17.6665 43.75 21.2916 43.75 25C43.7446 29.9712 41.7675 34.7372 38.2523 38.2523C34.7372 41.7675 29.9712 43.7446 25 43.75Z" fill="#343A40"/>
<path d="M30.3348 25.6265C29.8205 26.315 29.1699 26.8903 28.4236 27.3164C27.6773 27.7426 26.8513 28.0106 25.9969 28.1036C25.1426 28.1967 24.2782 28.1129 23.4577 27.8574C22.6371 27.6019 21.878 27.1803 21.2275 26.6187C20.577 26.0571 20.049 25.3675 19.6766 24.5931C19.3041 23.8186 19.0951 22.9757 19.0625 22.1169C19.0299 21.2581 19.1744 20.4018 19.4872 19.6014C19.7999 18.8009 20.274 18.0733 20.8801 17.464C22.0761 16.3299 23.6615 15.6977 25.3098 15.6977C26.958 15.6977 28.5435 16.3299 29.7395 17.464C29.9449 17.672 30.1345 17.895 30.3067 18.1312C30.5528 18.4646 30.9213 18.6866 31.3311 18.7482C31.7409 18.8099 32.1584 18.7063 32.4918 18.4601C32.8252 18.214 33.0471 17.8455 33.1088 17.4357C33.1705 17.0259 33.0669 16.6084 32.8207 16.275C32.556 15.913 32.2646 15.5715 31.9488 15.2531C30.5966 13.9043 28.8646 13.0006 26.9847 12.6631C25.1048 12.3257 23.1666 12.5704 21.4296 13.3646C19.6927 14.1589 18.2397 15.4647 17.2652 17.1074C16.2907 18.75 15.8412 20.6511 15.9768 22.5563C16.1124 24.4614 16.8267 26.2797 18.024 27.7678C19.2214 29.2558 20.8447 30.3427 22.6766 30.8829C24.5086 31.423 26.4619 31.3908 28.2751 30.7904C30.0882 30.1901 31.6747 29.0502 32.8223 27.5234C33.0637 27.1929 33.1659 26.7809 33.1067 26.376C33.0476 25.971 32.8319 25.6054 32.5061 25.3577C32.1803 25.11 31.7703 25.0001 31.3642 25.0516C30.9582 25.103 30.5886 25.3117 30.3348 25.6328V25.6265ZM31.2504 34.3765H18.7504C18.336 34.3765 17.9386 34.5412 17.6456 34.8342C17.3525 35.1272 17.1879 35.5246 17.1879 35.939C17.1879 36.3534 17.3525 36.7509 17.6456 37.0439C17.9386 37.3369 18.336 37.5015 18.7504 37.5015H31.2504C31.6648 37.5015 32.0622 37.3369 32.3553 37.0439C32.6483 36.7509 32.8129 36.3534 32.8129 35.939C32.8129 35.5246 32.6483 35.1272 32.3553 34.8342C32.0622 34.5412 31.6648 34.3765 31.2504 34.3765Z" fill="#343A40"/>
<path d="M39 38L12 11" stroke="#343A40" stroke-width="3" stroke-linecap="round"/>
</svg>
